mtllib map.mtl
# vertices
v -544 -16 -528
v -544 -16 736
v -544 0 736
v -544 0 -528
v 496 0 736
v 496 -16 736
v 496 -16 -528
v 496 0 -528
v 288 0 192
v 288 0 752
v 288 288 752
v 288 288 192
v 304 288 752
v 304 0 752
v 304 0 192
v 304 288 192
v -96 0 192
v -96 0 752
v -96 288 752
v -96 288 192
v -80 288 752
v -80 0 752
v -80 0 192
v -80 288 192
v -80 0 736
v -80 0 752
v -80 288 752
v -80 288 736
v 288 288 752
v 288 0 752
v 288 0 736
v 288 288 736
v -80 272 208
v -80 272 736
v -80 288 736
v -80 288 208
v 288 288 736
v 288 272 736
v 288 272 208
v 288 288 208
v -80 0 208
v -80 0 736
v -80 16 736
v -80 16 208
v 288 16 736
v 288 0 736
v 288 0 208
v 288 16 208
v 256 0 192
v 256 0 208
v 256 288 208
v 256 288 192
v 288 288 208
v 288 0 208
v 288 0 192
v 288 288 192
v -80 0 192
v -80 0 208
v -80 288 208
v -80 288 192
v 160 288 208
v 160 0 208
v 160 0 192
v 160 288 192
v 160 208 192
v 160 208 208
v 160 288 208
v 160 288 192
v 256 288 208
v 256 208 208
v 256 208 192
v 256 288 192
v 160 0 192
v 160 0 208
v 160 16 208
v 160 16 192
v 256 16 208
v 256 0 208
v 256 0 192
v 256 16 192
v 56 0 112
v 56 0 120
v 56 56 120
v 56 56 112
v 64 56 120
v 64 0 120
v 64 0 112
v 64 56 112
v -224 0 -472
v -224 0 -304
v -224 64 -304
v -224 64 -472
v -72 64 -240
v -72 0 -240
v -72 0 -408
v -72 64 -408
v -144 64 -432
v -144 64 -360
v -144 128 -424
v -144 128 -496
v -104 128 -424
v -104 64 -360
v -104 64 -432
v -104 128 -496
v -8 0 -8
v -8 0 8
v -8 88 8
v -8 88 -8
v 8 88 8
v 8 0 8
v 8 0 -8
v 8 88 -8
v 0 0 -256
v 0 0 -8
v 0 8 -8
v 0 8 -256
v 8 8 -8
v 8 0 -8
v 8 0 -256
v 8 8 -256
v -192 0 -128
v -192 0 -64
v -192 192 -64
v -192 192 -128
v -128 192 -64
v -128 0 -64
v -128 0 -128
v -128 192 -128
v 256 0 -256
v 256 0 -128
v 256 64 -192
v 256 64 -320
v 384 64 -192
v 384 0 -128
v 384 0 -256
v 384 64 -320
v -384 0 256
v -384 0 384
v -384 384 384
v -384 384 256
v -256 384 384
v -256 0 384
v -256 0 256
v -256 384 256
v -512 0 256
v -512 0 640
v -512 256 640
v -512 256 256
v -384 256 640
v -384 0 640
v -384 0 256
v -384 256 256

# texture coordinates
vt 0.84375 -0.03125
vt -1.625 -0.03125
vt -1.625 -0
vt 0.84375 -0
vt 1 -0
vt -1.03125 -0
vt -1.03125 -0.03125
vt 1 -0.03125
vt 1 -1.625
vt -1.03125 -1.625
vt -1.03125 0.84375
vt 1 0.84375
vt -0.1875 -0
vt -1.28125 -0
vt -1.28125 0.5625
vt -0.1875 0.5625
vt 0.625 0.5625
vt 0.59375 0.5625
vt 0.59375 -0
vt 0.625 -0
vt 0.625 -1.28125
vt 0.59375 -1.28125
vt 0.59375 -0.1875
vt 0.625 -0.1875
vt -0.125 0.5625
vt -0.15625 0.5625
vt -0.15625 -0
vt -0.125 -0
vt -0.125 -1.28125
vt -0.15625 -1.28125
vt -0.15625 -0.1875
vt -0.125 -0.1875
vt -1.25 -0
vt -1.25 0.5625
vt -0.125 -1.25
vt 0.59375 -1.25
vt -0.21875 0.53125
vt -1.25 0.53125
vt -0.21875 0.5625
vt -0.125 0.53125
vt 0.59375 0.53125
vt -0.125 -0.21875
vt 0.59375 -0.21875
vt -0.21875 -0
vt -1.25 0.03125
vt -0.21875 0.03125
vt 0.59375 0.03125
vt -0.125 0.03125
vt -0.375 -0.03125
vt -0.40625 -0.03125
vt -0.40625 0.53125
vt -0.375 0.53125
vt 0.53125 0.5625
vt 0.53125 -0
vt 0.53125 -0.21875
vt 0.53125 -0.1875
vt -3.5625 -0
vt -3.875 -0
vt -3.875 5.625
vt -3.5625 5.625
vt 3.15625 5.625
vt -1.53125 5.625
vt -1.53125 -0
vt 3.15625 -0
vt 3.15625 -3.875
vt -1.53125 -3.875
vt -1.53125 -3.5625
vt 3.15625 -3.5625
vt -3.75 5.59375
vt -4.0625 5.59375
vt -4.0625 -0.03125
vt -3.75 -0.03125
vt -0.375 0.375
vt -0.40625 0.375
vt 0.34375 0.5625
vt 0.34375 0.40625
vt 0.53125 0.40625
vt 0.5 -0.40625
vt 0.3125 -0.40625
vt 0.3125 -0.375
vt 0.5 -0.375
vt 0.34375 -0.1875
vt 0.34375 -0.21875
vt -0.40625 -0
vt -0.375 -0
vt 0.53125 0.03125
vt 0.34375 0.03125
vt 0.34375 -0
vt -0.234375 -0
vt -0.234375 0.109375
vt -0.21875 0.109375
vt 0.125 0.109375
vt 0.109375 0.109375
vt 0.109375 -0
vt 0.125 -0
vt 0.125 -0.234375
vt 0.109375 -0.234375
vt 0.109375 -0.21875
vt 0.125 -0.21875
vt 0.921875 -0
vt 0.59375 0.125
vt 0.921875 0.125
vt -0.140625 0.125
vt -0.4375 0.125
vt -0.4375 -0
vt -0.140625 -0
vt -0.140625 0.46875
vt -0.4375 0.59375
vt -0.4375 0.921875
vt -0.140625 0.796875
vt 0.796875 0.125
vt 0.46875 0.125
vt 0.46875 -0
vt 0.796875 -0
vt 0.84375 0.125
vt 0.703125 0.125
vt 0.828125 0.25
vt 0.96875 0.25
vt -0.203125 0.25
vt -0.28125 0.25
vt -0.28125 0.125
vt -0.203125 0.125
vt -0.203125 0.703125
vt -0.28125 0.703125
vt -0.28125 0.84375
vt -0.203125 0.84375
vt -0.203125 0.96875
vt -0.28125 0.96875
vt -0.28125 0.828125
vt -0.203125 0.828125
vt 0.015625 -0
vt -0.015625 -0
vt -0.015625 0.171875
vt 0.015625 0.171875
vt 0.015625 -0.015625
vt -0.015625 -0.015625
vt -0.015625 0.015625
vt 0.015625 0.015625
vt 0.5 -0
vt 0.5 0.015625
vt 0 0.015625
vt 0 -0
vt 0 0.5
vt 0.015625 0.5
vt 0.25 -0
vt 0.125 0.375
vt 0.25 0.375
vt -0.25 0.375
vt -0.25 -0
vt -0.25 0.125
vt -0.375 0.125
vt -0.375 0.25
vt -0.25 0.25
vt 0.5 0.05145147
vt 0.25 0.05145147
vt 0.375 0.062500015
vt 0.625 0.062500015
vt 0.75 0.125
vt 0.5 0.125
vt 0.75 -0
vt 0.75 0.25
vt 0.5 0.25
vt 0.5 0.5
vt 0.75 0.5
vt -0.5 -0
vt -0.75 -0
vt -0.75 0.75
vt -0.5 0.75
vt -0.5 -0.75
vt -0.75 -0.75
vt -0.75 -0.5
vt -0.5 -0.5
vt -1.25 0.5
vt -0.5 0.5
vt -0.75 0.5
vt -1 0.5
vt -1 -0
vt -0.75 -1.25
vt -1 -1.25
vt -1 -0.5

# normals
vn -1 0 -0
vn 0 0 1
vn 0 -1 -0
vn 0 1 -0
vn 0 0 -1
vn 1 0 -0
vn -0.38805700005813276 0 0.9216353751380653
vn 0.38805700005813276 -0 -0.9216353751380653
vn 0 0.7071067811865475 0.7071067811865475
vn 0 -0.7071067811865475 -0.7071067811865475

o entity0_brush0
usemtl Dirt/Dirt_02-512x512
f  1/1/1  2/2/1  3/3/1  4/4/1
usemtl Dirt/Dirt_02-512x512
f  5/5/2  3/6/2  2/7/2  6/8/2
usemtl Dirt/Dirt_02-512x512
f  6/9/3  2/10/3  1/11/3  7/12/3
usemtl Dirt/Dirt_02-512x512
f  8/12/4  4/11/4  3/10/4  5/9/4
usemtl Dirt/Dirt_02-512x512
f  7/8/5  1/7/5  4/6/5  8/5/5
usemtl Dirt/Dirt_02-512x512
f  8/4/6  5/3/6  6/2/6  7/1/6

o entity0_brush1
usemtl Metal/Metal_16-512x512
f  9/13/1  10/14/1  11/15/1  12/16/1
usemtl Metal/Metal_16-512x512
f  13/17/2  11/18/2  10/19/2  14/20/2
usemtl Metal/Metal_16-512x512
f  14/21/3  10/22/3  9/23/3  15/24/3
usemtl Metal/Metal_16-512x512
f  16/24/4  12/23/4  11/22/4  13/21/4
usemtl Metal/Metal_16-512x512
f  15/20/5  9/19/5  12/18/5  16/17/5
usemtl Metal/Metal_16-512x512
f  16/16/6  13/15/6  14/14/6  15/13/6

o entity0_brush2
usemtl Dirt/Dirt_02-512x512
f  17/13/1  18/14/1  19/15/1  20/16/1
usemtl Dirt/Dirt_02-512x512
f  21/25/2  19/26/2  18/27/2  22/28/2
usemtl Dirt/Dirt_02-512x512
f  22/29/3  18/30/3  17/31/3  23/32/3
usemtl Dirt/Dirt_02-512x512
f  24/32/4  20/31/4  19/30/4  21/29/4
usemtl Dirt/Dirt_02-512x512
f  23/28/5  17/27/5  20/26/5  24/25/5
usemtl Dirt/Dirt_02-512x512
f  24/16/6  21/15/6  22/14/6  23/13/6

o entity0_brush3
usemtl Dirt/Dirt_02-512x512
f  25/33/1  26/14/1  27/15/1  28/34/1
usemtl Dirt/Dirt_02-512x512
f  29/18/2  27/25/2  26/28/2  30/19/2
usemtl Dirt/Dirt_02-512x512
f  30/22/3  26/29/3  25/35/3  31/36/3
usemtl Dirt/Dirt_02-512x512
f  32/36/4  28/35/4  27/29/4  29/22/4
usemtl Dirt/Dirt_02-512x512
f  31/19/5  25/28/5  28/25/5  32/18/5
usemtl Dirt/Dirt_02-512x512
f  32/34/6  29/15/6  30/14/6  31/33/6

o entity0_brush4
usemtl Dirt/Dirt_02-512x512
f  33/37/1  34/38/1  35/34/1  36/39/1
usemtl Dirt/Dirt_02-512x512
f  37/18/2  35/25/2  34/40/2  38/41/2
usemtl Dirt/Dirt_02-512x512
f  38/36/3  34/35/3  33/42/3  39/43/3
usemtl Dirt/Dirt_02-512x512
f  40/43/4  36/42/4  35/35/4  37/36/4
usemtl Dirt/Dirt_02-512x512
f  39/41/5  33/40/5  36/25/5  40/18/5
usemtl Dirt/Dirt_02-512x512
f  40/39/6  37/34/6  38/38/6  39/37/6

o entity0_brush5
usemtl Dirt/Dirt_02-512x512
f  41/44/1  42/33/1  43/45/1  44/46/1
usemtl Dirt/Dirt_02-512x512
f  45/47/2  43/48/2  42/28/2  46/19/2
usemtl Dirt/Dirt_02-512x512
f  46/36/3  42/35/3  41/42/3  47/43/3
usemtl Dirt/Dirt_02-512x512
f  48/43/4  44/42/4  43/35/4  45/36/4
usemtl Dirt/Dirt_02-512x512
f  47/19/5  41/28/5  44/48/5  48/47/5
usemtl Dirt/Dirt_02-512x512
f  48/46/6  45/45/6  46/33/6  47/44/6

o entity0_brush6
usemtl Dirt/Dirt_02-512x512
f  49/49/1  50/50/1  51/51/1  52/52/1
usemtl Dirt/Dirt_02-512x512
f  53/18/2  51/53/2  50/54/2  54/19/2
usemtl Dirt/Dirt_02-512x512
f  54/43/3  50/55/3  49/56/3  55/23/3
usemtl Dirt/Dirt_02-512x512
f  56/23/4  52/56/4  51/55/4  53/43/4
usemtl Dirt/Dirt_02-512x512
f  55/19/5  49/54/5  52/53/5  56/18/5
usemtl Dirt/Dirt_02-512x512
f  56/16/6  53/39/6  54/44/6  55/13/6

o entity0_brush7
usemtl Brick/Brick_09-512x512
f  57/57/1  58/58/1  59/59/1  60/60/1
usemtl Brick/Brick_09-512x512
f  61/61/2  59/62/2  58/63/2  62/64/2
usemtl Brick/Brick_09-512x512
f  62/65/3  58/66/3  57/67/3  63/68/3
usemtl Brick/Brick_09-512x512
f  64/68/4  60/67/4  59/66/4  61/65/4
usemtl Brick/Brick_09-512x512
f  63/64/5  57/63/5  60/62/5  64/61/5
usemtl Brick/Brick_09-512x512
f  64/69/6  61/70/6  62/71/6  63/72/6

o entity0_brush8
usemtl Dirt/Dirt_02-512x512
f  65/73/1  66/74/1  67/51/1  68/52/1
usemtl Dirt/Dirt_02-512x512
f  69/53/2  67/75/2  66/76/2  70/77/2
usemtl Dirt/Dirt_02-512x512
f  70/78/3  66/79/3  65/80/3  71/81/3
usemtl Dirt/Dirt_02-512x512
f  72/56/4  68/82/4  67/83/4  69/55/4
usemtl Dirt/Dirt_02-512x512
f  71/77/5  65/76/5  68/75/5  72/53/5
usemtl Dirt/Dirt_02-512x512
f  72/52/6  69/51/6  70/74/6  71/73/6

o entity0_brush9
usemtl Dirt/Dirt_02-512x512
f  73/49/1  74/50/1  75/84/1  76/85/1
usemtl Dirt/Dirt_02-512x512
f  77/86/2  75/87/2  74/88/2  78/54/2
usemtl Dirt/Dirt_02-512x512
f  78/55/3  74/83/3  73/82/3  79/56/3
usemtl Dirt/Dirt_02-512x512
f  80/81/4  76/80/4  75/79/4  77/78/4
usemtl Dirt/Dirt_02-512x512
f  79/54/5  73/88/5  76/87/5  80/86/5
usemtl Dirt/Dirt_02-512x512
f  80/85/6  77/84/6  78/50/6  79/49/6

o entity0_brush10
usemtl Brick/Brick_20-512x512
f  81/44/1  82/89/1  83/90/1  84/91/1
usemtl Brick/Brick_20-512x512
f  85/92/2  83/93/2  82/94/2  86/95/2
usemtl Brick/Brick_20-512x512
f  86/96/3  82/97/3  81/98/3  87/99/3
usemtl Brick/Brick_20-512x512
f  88/99/4  84/98/4  83/97/4  85/96/4
usemtl Brick/Brick_20-512x512
f  87/95/5  81/94/5  84/93/5  88/92/5
usemtl Brick/Brick_20-512x512
f  88/91/6  85/90/6  86/89/6  87/44/6

o entity0_brush11
usemtl Tile/Tile_20-512x512
f  89/100/1  90/19/1  91/101/1  92/102/1
usemtl Tile/Tile_20-512x512
f  93/103/7  91/104/7  90/105/7  94/106/7
usemtl Tile/Tile_20-512x512
f  94/107/3  90/108/3  89/109/3  95/110/3
usemtl Tile/Tile_20-512x512
f  96/110/4  92/109/4  91/108/4  93/107/4
usemtl Tile/Tile_20-512x512
f  95/106/8  89/105/8  92/104/8  96/103/8
usemtl Tile/Tile_20-512x512
f  96/111/6  93/112/6  94/113/6  95/114/6

o entity0_brush12
usemtl Wood/Wood_20-512x512
f  97/115/1  98/116/1  99/117/1  100/118/1
usemtl Wood/Wood_20-512x512
f  101/119/9  99/120/9  98/121/9  102/122/9
usemtl Wood/Wood_20-512x512
f  102/123/3  98/124/3  97/125/3  103/126/3
usemtl Wood/Wood_20-512x512
f  104/127/4  100/128/4  99/129/4  101/130/4
usemtl Wood/Wood_20-512x512
f  103/122/10  97/121/10  100/120/10  104/119/10
usemtl Wood/Wood_20-512x512
f  104/118/6  101/117/6  102/116/6  103/115/6

o entity0_brush13
usemtl Tile/Tile_05-512x512
f  105/131/1  106/132/1  107/133/1  108/134/1
usemtl Tile/Tile_05-512x512
f  109/134/2  107/133/2  106/132/2  110/131/2
usemtl Tile/Tile_05-512x512
f  110/135/3  106/136/3  105/137/3  111/138/3
usemtl Tile/Tile_05-512x512
f  112/138/4  108/137/4  107/136/4  109/135/4
usemtl Tile/Tile_05-512x512
f  111/131/5  105/132/5  108/133/5  112/134/5
usemtl Tile/Tile_05-512x512
f  112/134/6  109/133/6  110/132/6  111/131/6

o entity0_brush14
usemtl Tile/Tile_05-512x512
f  113/139/1  114/131/1  115/138/1  116/140/1
usemtl Tile/Tile_05-512x512
f  117/138/2  115/141/2  114/142/2  118/131/2
usemtl Tile/Tile_05-512x512
f  118/138/3  114/141/3  113/143/3  119/144/3
usemtl Tile/Tile_05-512x512
f  120/144/4  116/143/4  115/141/4  117/138/4
usemtl Tile/Tile_05-512x512
f  119/131/5  113/142/5  116/141/5  120/138/5
usemtl Tile/Tile_05-512x512
f  120/140/6  117/138/6  118/131/6  119/139/6

o entity0_brush15
usemtl Wood/Wood_13-512x512
f  121/145/1  122/95/1  123/146/1  124/147/1
usemtl Wood/Wood_13-512x512
f  125/148/2  123/73/2  122/85/2  126/149/2
usemtl Wood/Wood_13-512x512
f  126/150/3  122/151/3  121/152/3  127/153/3
usemtl Wood/Wood_13-512x512
f  128/153/4  124/152/4  123/151/4  125/150/4
usemtl Wood/Wood_13-512x512
f  127/149/5  121/85/5  124/73/5  128/148/5
usemtl Wood/Wood_13-512x512
f  128/147/6  125/146/6  126/95/6  127/145/6

o entity0_brush16
usemtl Brick/Brick_09-512x512
f  129/154/1  130/155/1  131/156/1  132/157/1
usemtl Brick/Brick_09-512x512
f  133/158/9  131/159/9  130/139/9  134/160/9
usemtl Brick/Brick_09-512x512
f  134/161/3  130/162/3  129/163/3  135/164/3
usemtl Brick/Brick_09-512x512
f  136/164/4  132/163/4  131/162/4  133/161/4
usemtl Brick/Brick_09-512x512
f  135/160/10  129/139/10  132/159/10  136/158/10
usemtl Brick/Brick_09-512x512
f  136/157/6  133/156/6  134/155/6  135/154/6

o entity0_brush17
usemtl Brick/Brick_09-512x512
f  137/165/1  138/166/1  139/167/1  140/168/1
usemtl Brick/Brick_09-512x512
f  141/168/2  139/167/2  138/166/2  142/165/2
usemtl Brick/Brick_09-512x512
f  142/169/3  138/170/3  137/171/3  143/172/3
usemtl Brick/Brick_09-512x512
f  144/172/4  140/171/4  139/170/4  141/169/4
usemtl Brick/Brick_09-512x512
f  143/165/5  137/166/5  140/167/5  144/168/5
usemtl Brick/Brick_09-512x512
f  144/168/6  141/167/6  142/166/6  143/165/6

o entity0_brush18
usemtl Brick/Brick_09-512x512
f  145/165/1  146/33/1  147/173/1  148/174/1
usemtl Brick/Brick_09-512x512
f  149/175/2  147/176/2  146/177/2  150/166/2
usemtl Brick/Brick_09-512x512
f  150/178/3  146/179/3  145/180/3  151/171/3
usemtl Brick/Brick_09-512x512
f  152/171/4  148/180/4  147/179/4  149/178/4
usemtl Brick/Brick_09-512x512
f  151/166/5  145/177/5  148/176/5  152/175/5
usemtl Brick/Brick_09-512x512
f  152/174/6  149/173/6  150/33/6  151/165/6

