# Blender 4.5.1 LTS
# www.blender.org
mtllib elevator_shaft.mtl
o Cube
v -1.033749 -1.000000 0.749284
v -1.033749 1.000000 0.749284
v -1.033749 -1.000000 -0.749284
v -1.033749 1.000000 -0.749284
v 1.033749 -1.000000 0.749284
v 1.033749 1.000000 0.749284
v 1.033749 -1.000000 -0.749284
v 1.033749 1.000000 -0.749284
v -1.067748 -1.050000 0.786748
v -1.067748 1.050000 0.786748
v -1.067748 -1.050000 -0.749284
v -1.067748 1.050000 -0.749284
v 1.067748 -1.050000 0.786748
v 1.067748 1.050000 0.786748
v 1.067748 -1.050000 -0.749284
v 1.067748 1.050000 -0.749284
vn 1.0000 -0.0000 -0.0000
vn -1.0000 -0.0000 -0.0000
vn -0.0000 -0.0000 -1.0000
vn -0.0000 1.0000 -0.0000
vn -0.0000 -1.0000 -0.0000
vn -0.0000 -0.0000 1.0000
vt 0.375000 0.000000
vt 0.375000 0.250000
vt 0.625000 0.250000
vt 0.625000 0.000000
vt 0.375000 0.500000
vt 0.375000 0.750000
vt 0.625000 0.750000
vt 0.625000 0.500000
vt 0.375000 1.000000
vt 0.625000 1.000000
vt 0.125000 0.500000
vt 0.125000 0.750000
vt 0.875000 0.750000
vt 0.875000 0.500000
s 0
usemtl Material.001
f 1/1/1 3/2/1 4/3/1 2/4/1
f 7/5/2 5/6/2 6/7/2 8/8/2
f 5/6/3 1/9/3 2/10/3 6/7/3
f 3/11/4 1/12/4 5/6/4 7/5/4
f 8/8/5 6/7/5 2/13/5 4/14/5
f 9/1/2 10/4/2 12/3/2 11/2/2
f 15/5/1 16/8/1 14/7/1 13/6/1
f 13/6/6 14/7/6 10/10/6 9/9/6
f 11/11/5 15/5/5 13/6/5 9/12/5
f 16/8/4 12/14/4 10/13/4 14/7/4
f 4/3/3 3/2/3 11/2/3 12/3/3
f 3/11/3 7/5/3 15/5/3 11/11/3
f 8/8/3 4/14/3 12/14/3 16/8/3
f 7/5/3 8/8/3 16/8/3 15/5/3
