# Blender 4.4.1
# www.blender.org
mtllib bar2.mtl
o Circle
v -1.194168 0.153812 -6.003490
v 0.000000 0.000000 -6.121106
v -1.194168 0.000000 -6.003490
v -2.342446 0.000000 -5.655164
v -3.400704 0.000000 -5.089513
v -4.328275 0.000000 -4.328275
v -5.089513 0.000000 -3.400704
v -5.655164 0.000000 -2.342446
v -6.003490 0.000000 -1.194168
v -6.121106 0.000000 0.000000
v -6.003490 0.000000 1.194168
v -5.655164 0.000000 2.342446
v -5.089513 0.000000 3.400704
v -4.328275 0.000000 4.328275
v -3.400704 0.000000 5.089513
v -2.342446 0.000000 5.655164
v -1.194168 0.000000 6.003490
v 0.000000 0.000000 6.121106
v 1.194168 0.000000 6.003490
v 2.342446 0.000000 5.655164
v 3.400704 0.000000 5.089513
v 4.328275 0.000000 4.328275
v 5.089513 0.000000 3.400704
v 5.655164 0.000000 2.342446
v 6.003490 0.000000 1.194168
v 6.121106 0.000000 0.000000
v 6.003490 0.000000 -1.194168
v 5.655164 0.000000 -2.342446
v 5.089513 0.000000 -3.400704
v 4.328275 0.000000 -4.328275
v 3.400704 0.000000 -5.089513
v 2.342446 0.000000 -5.655164
v 1.194168 0.000000 -6.003490
v 2.448244 0.087212 -5.652268
v 3.339518 0.087212 -5.175872
v 4.268195 3.153186 -6.565737
v 3.087928 3.153186 -7.196602
v -5.727927 0.087212 2.265588
v -6.021290 0.087212 1.298499
v -7.660747 3.153186 1.624607
v -7.272261 3.153186 2.905272
v 1.104592 0.087212 6.059861
v 0.098853 0.087212 6.158917
v 0.098853 3.153186 7.830492
v 1.430700 3.153186 7.699317
v 6.158917 0.087212 0.098853
v 6.059861 0.087212 1.104592
v 7.699317 3.153186 1.430700
v 7.830492 3.153186 0.098853
v -4.285113 0.087212 -4.424911
v -3.503905 0.087212 -5.066033
v -4.432582 3.153186 -6.455897
v -5.467094 3.153186 -5.606894
v 1.298499 0.087212 -6.021290
v 2.265588 0.087212 -5.727927
v 2.905272 3.153186 -7.272261
v 1.624607 3.153186 -7.660747
v -5.175872 0.087212 3.339518
v -5.652268 0.087212 2.448244
v -7.196602 3.153186 3.087928
v -6.565737 3.153186 4.268195
v 2.265588 0.087212 5.727927
v 1.298499 0.087212 6.021290
v 1.624607 3.153186 7.660747
v 2.905272 3.153186 7.272261
v 6.059861 0.087212 -1.104592
v 6.158917 0.087212 -0.098853
v 7.830492 3.153186 -0.098853
v 7.699317 3.153186 -1.430700
v -5.066033 0.087212 -3.503905
v -4.424912 0.087212 -4.285112
v -5.606894 3.153186 -5.467094
v -6.455897 3.153186 -4.432582
v 0.098853 0.087212 -6.158917
v 1.104592 0.087212 -6.059861
v 1.430700 3.153186 -7.699317
v 0.098853 3.153186 -7.830492
v -4.424911 0.087212 4.285113
v -5.066033 0.087212 3.503905
v -6.455897 3.153186 4.432582
v -5.606894 3.153186 5.467094
v 3.339518 0.087212 5.175872
v 2.448244 0.087212 5.652268
v 3.087928 3.153186 7.196602
v 4.268195 3.153186 6.565737
v 5.727927 0.087212 -2.265588
v 6.021290 0.087212 -1.298499
v 7.660747 3.153186 -1.624607
v 7.272261 3.153186 -2.905272
v -5.652268 0.087212 -2.448244
v -5.175872 0.087212 -3.339518
v -6.565737 3.153186 -4.268195
v -7.196602 3.153186 -3.087928
v -3.503905 0.087212 5.066033
v -4.285112 0.087212 4.424912
v -5.467094 3.153186 5.606894
v -4.432582 3.153186 6.455897
v 4.285113 0.087212 4.424911
v 3.503905 0.087212 5.066033
v 4.432582 3.153186 6.455897
v 5.467094 3.153186 5.606894
v 5.175872 0.087212 -3.339518
v 5.652268 0.087212 -2.448244
v 7.196602 3.153186 -3.087928
v 6.565737 3.153186 -4.268195
v -6.021290 0.087212 -1.298499
v -5.727927 0.087212 -2.265588
v -7.272261 3.153186 -2.905272
v -7.660747 3.153186 -1.624607
v -1.104592 0.087212 -6.059861
v -0.098853 0.087212 -6.158917
v -0.098853 3.153186 -7.830492
v -1.430700 3.153186 -7.699317
v -2.448244 0.087212 5.652268
v -3.339518 0.087212 5.175872
v -4.268195 3.153186 6.565737
v -3.087928 3.153186 7.196602
v 5.066033 0.087212 3.503905
v 4.424912 0.087212 4.285112
v 5.606894 3.153186 5.467094
v 6.455897 3.153186 4.432582
v 4.424911 0.087212 -4.285113
v 5.066033 0.087212 -3.503905
v 6.455897 3.153186 -4.432582
v 5.606894 3.153186 -5.467094
v -6.158917 0.087212 -0.098853
v -6.059861 0.087212 -1.104592
v -7.699317 3.153186 -1.430700
v -7.830492 3.153186 -0.098853
v -1.298499 0.087212 6.021290
v -2.265588 0.087212 5.727927
v -2.905272 3.153186 7.272261
v -1.624607 3.153186 7.660747
v 5.652268 0.087212 2.448244
v 5.175872 0.087212 3.339518
v 6.565737 3.153186 4.268195
v 7.196602 3.153186 3.087928
v -2.265588 0.087212 -5.727927
v -1.298499 0.087212 -6.021290
v -1.624607 3.153186 -7.660747
v -2.905272 3.153186 -7.272261
v 3.503905 0.087212 -5.066033
v 4.285112 0.087212 -4.424912
v 5.467094 3.153186 -5.606894
v 4.432582 3.153186 -6.455897
v -6.059861 0.087212 1.104592
v -6.158917 0.087212 0.098853
v -7.830492 3.153186 0.098853
v -7.699317 3.153186 1.430700
v -0.098853 0.087212 6.158917
v -1.104592 0.087212 6.059861
v -1.430700 3.153186 7.699317
v -0.098853 3.153186 7.830492
v 6.021290 0.087212 1.298499
v 5.727927 0.087212 2.265588
v 7.272261 3.153186 2.905272
v 7.660747 3.153186 1.624607
v -3.339518 0.087212 -5.175872
v -2.448244 0.087212 -5.652268
v -3.087928 3.153186 -7.196602
v -4.268195 3.153186 -6.565737
v -1.194168 0.153812 -6.003490
v -0.000000 0.153812 -6.121106
v -2.342446 0.153812 -5.655164
v -3.400704 0.153812 -5.089513
v -4.328275 0.153812 -4.328275
v -5.089513 0.153812 -3.400704
v -5.655164 0.153812 -2.342446
v -6.003490 0.153812 -1.194168
v -6.121106 0.153812 0.000000
v -6.003490 0.153812 1.194168
v -5.655164 0.153812 2.342446
v -5.089513 0.153812 3.400704
v -4.328275 0.153812 4.328275
v -3.400704 0.153812 5.089513
v -2.342446 0.153812 5.655164
v -1.194168 0.153812 6.003490
v -0.000000 0.153812 6.121106
v 1.194168 0.153812 6.003490
v 2.342446 0.153812 5.655164
v 3.400704 0.153812 5.089513
v 4.328275 0.153812 4.328275
v 5.089513 0.153812 3.400704
v 5.655164 0.153812 2.342446
v 6.003490 0.153812 1.194168
v 6.121106 0.153812 0.000000
v 6.003490 0.153812 -1.194168
v 5.655164 0.153812 -2.342446
v 5.089513 0.153812 -3.400704
v 4.328275 0.153812 -4.328275
v 3.400704 0.153812 -5.089513
v 2.342446 0.153812 -5.655164
v 1.194168 0.153812 -6.003490
v -1.538829 3.394210 -7.736216
v 0.000000 3.394210 -7.887777
v -3.018522 3.394210 -7.287355
v -4.382214 3.394210 -6.558447
v -5.577500 3.394210 -5.577500
v -6.558447 3.394210 -4.382214
v -7.287355 3.394210 -3.018522
v -7.736216 3.394210 -1.538829
v -7.887777 3.394210 0.000000
v -7.736216 3.394210 1.538829
v -7.287355 3.394210 3.018522
v -6.558447 3.394210 4.382214
v -5.577500 3.394210 5.577500
v -4.382214 3.394210 6.558447
v -3.018522 3.394210 7.287355
v -1.538829 3.394210 7.736216
v 0.000000 3.394210 7.887777
v 1.538829 3.394210 7.736216
v 3.018522 3.394210 7.287355
v 4.382214 3.394210 6.558447
v 5.577500 3.394210 5.577500
v 6.558447 3.394210 4.382214
v 7.287355 3.394210 3.018522
v 7.736216 3.394210 1.538829
v 7.887777 3.394210 0.000000
v 7.736216 3.394210 -1.538829
v 7.287355 3.394210 -3.018522
v 6.558447 3.394210 -4.382214
v 5.577500 3.394210 -5.577500
v 4.382214 3.394210 -6.558447
v 3.018522 3.394210 -7.287355
v 1.538829 3.394210 -7.736216
v 2.448244 0.241024 -5.652268
v 3.339518 0.241024 -5.175872
v 3.087928 3.306998 -7.196602
v 4.268195 3.306998 -6.565737
v -5.727927 0.241024 2.265588
v -6.021290 0.241024 1.298499
v -7.272261 3.306998 2.905272
v -7.660747 3.306998 1.624607
v 1.104592 0.241024 6.059861
v 0.098853 0.241024 6.158917
v 1.430700 3.306998 7.699317
v 0.098853 3.306998 7.830492
v 6.158917 0.241024 0.098853
v 6.059861 0.241024 1.104592
v 7.830492 3.306998 0.098853
v 7.699317 3.306998 1.430700
v -4.285113 0.241024 -4.424911
v -3.503905 0.241024 -5.066033
v -5.467094 3.306998 -5.606894
v -4.432582 3.306998 -6.455897
v 1.298499 0.241024 -6.021290
v 2.265588 0.241024 -5.727927
v 1.624607 3.306998 -7.660747
v 2.905272 3.306998 -7.272261
v -5.175872 0.241024 3.339518
v -5.652268 0.241024 2.448244
v -6.565737 3.306998 4.268195
v -7.196602 3.306998 3.087928
v 2.265588 0.241024 5.727927
v 1.298499 0.241024 6.021290
v 2.905272 3.306998 7.272261
v 1.624607 3.306998 7.660747
v 6.059861 0.241024 -1.104592
v 6.158917 0.241024 -0.098853
v 7.699317 3.306998 -1.430700
v 7.830492 3.306998 -0.098853
v -5.066033 0.241024 -3.503905
v -4.424912 0.241024 -4.285112
v -6.455897 3.306998 -4.432582
v -5.606894 3.306998 -5.467094
v 0.098853 0.241024 -6.158917
v 1.104592 0.241024 -6.059861
v 0.098853 3.306998 -7.830492
v 1.430700 3.306998 -7.699317
v -4.424911 0.241024 4.285113
v -5.066033 0.241024 3.503905
v -5.606894 3.306998 5.467094
v -6.455897 3.306998 4.432582
v 3.339518 0.241024 5.175872
v 2.448244 0.241024 5.652268
v 4.268195 3.306998 6.565737
v 3.087928 3.306998 7.196602
v 5.727927 0.241024 -2.265588
v 6.021290 0.241024 -1.298499
v 7.272261 3.306998 -2.905272
v 7.660747 3.306998 -1.624607
v -5.652268 0.241024 -2.448244
v -5.175872 0.241024 -3.339518
v -7.196602 3.306998 -3.087928
v -6.565737 3.306998 -4.268195
v -3.503905 0.241024 5.066033
v -4.285112 0.241024 4.424912
v -4.432582 3.306998 6.455897
v -5.467094 3.306998 5.606894
v 4.285113 0.241024 4.424911
v 3.503905 0.241024 5.066033
v 5.467094 3.306998 5.606894
v 4.432582 3.306998 6.455897
v 5.175872 0.241024 -3.339518
v 5.652268 0.241024 -2.448244
v 6.565737 3.306998 -4.268195
v 7.196602 3.306998 -3.087928
v -6.021290 0.241024 -1.298499
v -5.727927 0.241024 -2.265588
v -7.660747 3.306998 -1.624607
v -7.272261 3.306998 -2.905272
v -1.104592 0.241024 -6.059861
v -0.098853 0.241024 -6.158917
v -1.430700 3.306998 -7.699317
v -0.098853 3.306998 -7.830492
v -2.448244 0.241024 5.652268
v -3.339518 0.241024 5.175872
v -3.087928 3.306998 7.196602
v -4.268195 3.306998 6.565737
v 5.066033 0.241024 3.503905
v 4.424912 0.241024 4.285112
v 6.455897 3.306998 4.432582
v 5.606894 3.306998 5.467094
v 4.424911 0.241024 -4.285113
v 5.066033 0.241024 -3.503905
v 5.606894 3.306998 -5.467094
v 6.455897 3.306998 -4.432582
v -6.158917 0.241024 -0.098853
v -6.059861 0.241024 -1.104592
v -7.830492 3.306998 -0.098853
v -7.699317 3.306998 -1.430700
v -1.298499 0.241024 6.021290
v -2.265588 0.241024 5.727927
v -1.624607 3.306998 7.660747
v -2.905272 3.306998 7.272261
v 5.652268 0.241024 2.448244
v 5.175872 0.241024 3.339518
v 7.196602 3.306998 3.087928
v 6.565737 3.306998 4.268195
v -2.265588 0.241024 -5.727927
v -1.298499 0.241024 -6.021290
v -2.905272 3.306998 -7.272261
v -1.624607 3.306998 -7.660747
v 3.503905 0.241024 -5.066033
v 4.285112 0.241024 -4.424912
v 4.432582 3.306998 -6.455897
v 5.467094 3.306998 -5.606894
v -6.059861 0.241024 1.104592
v -6.158917 0.241024 0.098853
v -7.699317 3.306998 1.430700
v -7.830492 3.306998 0.098853
v -0.098853 0.241024 6.158917
v -1.104592 0.241024 6.059861
v -0.098853 3.306998 7.830492
v -1.430700 3.306998 7.699317
v 6.021290 0.241024 1.298499
v 5.727927 0.241024 2.265588
v 7.660747 3.306998 1.624607
v 7.272261 3.306998 2.905272
v -3.339518 0.241024 -5.175872
v -2.448244 0.241024 -5.652268
v -4.268195 3.306998 -6.565737
v -3.087928 3.306998 -7.196602
v -1.194168 0.000000 -6.003490
v 0.000000 0.000000 -6.121106
v -2.342446 0.000000 -5.655164
v -3.400704 0.000000 -5.089513
v -4.328275 0.000000 -4.328275
v -5.089513 0.000000 -3.400704
v -5.655164 0.000000 -2.342446
v -6.003490 0.000000 -1.194168
v -6.121106 0.000000 0.000000
v -6.003490 0.000000 1.194168
v -5.655164 0.000000 2.342446
v -5.089513 0.000000 3.400704
v -4.328275 0.000000 4.328275
v -3.400704 0.000000 5.089513
v -2.342446 0.000000 5.655164
v -1.194168 0.000000 6.003490
v 0.000000 0.000000 6.121106
v 1.194168 0.000000 6.003490
v 2.342446 0.000000 5.655164
v 3.400704 0.000000 5.089513
v 4.328275 0.000000 4.328275
v 5.089513 0.000000 3.400704
v 5.655164 0.000000 2.342446
v 6.003490 0.000000 1.194168
v 6.121106 0.000000 0.000000
v 6.003490 0.000000 -1.194168
v 5.655164 0.000000 -2.342446
v 5.089513 0.000000 -3.400704
v 4.328275 0.000000 -4.328275
v 3.400704 0.000000 -5.089513
v 2.342446 0.000000 -5.655164
v 1.194168 0.000000 -6.003490
v 0.000000 0.153812 -6.121106
v 0.000000 0.153812 0.000000
v -2.342446 0.153812 -5.655164
v -3.400704 0.153812 -5.089513
v -4.328275 0.153812 -4.328275
v -5.089513 0.153812 -3.400704
v -5.655164 0.153812 -2.342446
v -6.003490 0.153812 -1.194168
v -6.121106 0.153812 0.000000
v -6.003490 0.153812 1.194168
v -5.655164 0.153812 2.342446
v -5.089513 0.153812 3.400704
v -4.328275 0.153812 4.328275
v -3.400704 0.153812 5.089513
v -2.342446 0.153812 5.655164
v -1.194168 0.153812 6.003490
v 0.000000 0.153812 6.121106
v 1.194168 0.153812 6.003490
v 2.342446 0.153812 5.655164
v 3.400704 0.153812 5.089513
v 4.328275 0.153812 4.328275
v 5.089513 0.153812 3.400704
v 5.655164 0.153812 2.342446
v 6.003490 0.153812 1.194168
v 6.121106 0.153812 0.000000
v 6.003490 0.153812 -1.194168
v 5.655164 0.153812 -2.342446
v 5.089513 0.153812 -3.400704
v 4.328275 0.153812 -4.328275
v 3.400704 0.153812 -5.089513
v 2.342446 0.153812 -5.655164
v 1.194168 0.153812 -6.003490
v -0.700622 4.092839 -3.522265
v 0.000000 4.092839 -3.591270
v 0.700622 4.092839 -3.522265
v 1.374320 4.092839 -3.317901
v 1.995203 4.092839 -2.986032
v 2.539411 4.092839 -2.539411
v 2.986032 4.092839 -1.995203
v 3.317901 4.092839 -1.374320
v 3.522265 4.092839 -0.700622
v 3.591270 4.092839 0.000000
v 3.522265 4.092839 0.700622
v 3.317901 4.092839 1.374320
v 2.986032 4.092839 1.995203
v 2.539411 4.092839 2.539411
v 1.995203 4.092839 2.986032
v 1.374320 4.092839 3.317901
v 0.700622 4.092839 3.522265
v 0.000000 4.092839 3.591270
v -0.700622 4.092839 3.522265
v -1.374320 4.092839 3.317901
v -1.995203 4.092839 2.986032
v -2.539411 4.092839 2.539411
v -2.986032 4.092839 1.995203
v -3.317901 4.092839 1.374320
v -3.522265 4.092839 0.700622
v -3.591270 4.092839 0.000000
v -3.522265 4.092839 -0.700622
v -3.317901 4.092839 -1.374320
v -2.986032 4.092839 -1.995203
v -2.539411 4.092839 -2.539411
v -1.995203 4.092839 -2.986032
v -1.374320 4.092839 -3.317901
v -1.194168 0.000000 -6.003490
v 0.000000 0.000000 -6.121106
v -2.342446 0.000000 -5.655164
v -3.400704 0.000000 -5.089513
v -4.328275 0.000000 -4.328275
v -5.089513 0.000000 -3.400704
v -5.655164 0.000000 -2.342446
v -6.003490 0.000000 -1.194168
v -6.121106 0.000000 0.000000
v -6.003490 0.000000 1.194168
v -5.655164 0.000000 2.342446
v -5.089513 0.000000 3.400704
v -4.328275 0.000000 4.328275
v -3.400704 0.000000 5.089513
v -2.342446 0.000000 5.655164
v -1.194168 0.000000 6.003490
v 0.000000 0.000000 6.121106
v 1.194168 0.000000 6.003490
v 2.342446 0.000000 5.655164
v 3.400704 0.000000 5.089513
v 4.328275 0.000000 4.328275
v 5.089513 0.000000 3.400704
v 5.655164 0.000000 2.342446
v 6.003490 0.000000 1.194168
v 6.121106 0.000000 0.000000
v 6.003490 0.000000 -1.194168
v 5.655164 0.000000 -2.342446
v 5.089513 0.000000 -3.400704
v 4.328275 0.000000 -4.328275
v 3.400704 0.000000 -5.089513
v 2.342446 0.000000 -5.655164
v 1.194168 0.000000 -6.003490
vn -0.0000 1.0000 -0.0000
vn 0.6344 -0.0000 0.7730
vn 0.8819 -0.0000 -0.4714
vn 0.7071 -0.0000 -0.7071
vn 0.9952 -0.0000 0.0980
vn -0.6344 -0.0000 -0.7730
vn -0.6344 -0.0000 0.7730
vn -0.1951 -0.0000 0.9808
vn -0.0980 -0.0000 0.9952
vn 0.4714 -0.0000 0.8819
vn -0.0000 -0.0000 -1.0000
vn -0.9808 -0.0000 -0.1951
vn -0.7730 -0.0000 0.6344
vn -0.9952 -0.0000 -0.0980
vn 1.0000 -0.0000 -0.0000
vn 0.0980 -0.0000 -0.9952
vn 0.2903 -0.0000 0.9569
vn 0.9808 -0.0000 0.1951
vn -0.8819 -0.0000 0.4714
vn -1.0000 -0.0000 -0.0000
vn 0.8315 -0.0000 -0.5556
vn -0.7071 -0.0000 0.7071
vn 0.0980 -0.0000 0.9952
vn 0.1951 -0.0000 -0.9808
vn -0.9569 -0.0000 0.2903
vn -0.0000 -0.0000 1.0000
vn -0.9952 -0.0000 0.0980
vn -0.5556 -0.0000 -0.8315
vn 0.7730 -0.0000 0.6344
vn 0.7071 -0.0000 0.7071
vn 0.7730 -0.0000 -0.6344
vn 0.5556 -0.0000 -0.8315
vn 0.9952 -0.0000 -0.0980
vn -0.7730 -0.0000 -0.6344
vn 0.6344 -0.0000 -0.7730
vn -0.9569 -0.0000 -0.2903
vn -0.1951 -0.0000 -0.9808
vn -0.0980 -0.0000 -0.9952
vn -0.8315 -0.0000 -0.5556
vn -0.8819 -0.0000 -0.4714
vn -0.9808 -0.0000 0.1951
vn -0.5556 -0.0000 0.8315
vn 0.1951 -0.0000 0.9808
vn -0.7071 -0.0000 -0.7071
vn 0.8819 -0.0000 0.4714
vn -0.4714 -0.0000 -0.8819
vn 0.8315 -0.0000 0.5556
vn 0.9569 -0.0000 -0.2903
vn 0.3827 -0.0000 -0.9239
vn -0.2903 -0.0000 -0.9569
vn -0.3827 -0.0000 -0.9239
vn 0.4714 -0.0000 -0.8819
vn -0.9239 -0.0000 -0.3827
vn 0.9808 -0.0000 -0.1951
vn -0.4714 -0.0000 0.8819
vn -0.9239 -0.0000 0.3827
vn 0.2903 -0.0000 -0.9569
vn 0.9239 -0.0000 -0.3827
vn 0.3827 -0.0000 0.9239
vn 0.9239 -0.0000 0.3827
vn -0.3827 -0.0000 0.9239
vn -0.8315 -0.0000 0.5556
vn 0.9569 -0.0000 0.2903
vn -0.0000 -1.0000 -0.0000
vn -0.4143 0.4769 0.7752
vn 0.8411 0.4769 -0.2551
vn 0.8411 0.4769 -0.2552
vn -0.0862 0.4769 -0.8747
vn -0.8747 0.4769 -0.0862
vn -0.8747 0.4769 -0.0861
vn 0.5576 0.4769 0.6794
vn -0.2551 0.4769 0.8411
vn -0.2552 0.4769 0.8411
vn 0.7752 0.4769 -0.4143
vn -0.2551 0.4769 -0.8411
vn -0.8747 0.4769 0.0862
vn -0.8747 0.4769 0.0861
vn 0.6794 0.4769 0.5576
vn -0.0862 0.4769 0.8747
vn 0.6794 0.4769 -0.5576
vn -0.4143 0.4769 -0.7752
vn -0.8411 0.4769 0.2551
vn 0.7752 0.4769 0.4143
vn 0.5576 0.4769 -0.6794
vn -0.5576 0.4769 -0.6794
vn -0.7752 0.4769 0.4143
vn 0.8411 0.4769 0.2551
vn 0.0862 0.4769 0.8747
vn 0.4143 0.4769 -0.7752
vn -0.6794 0.4769 -0.5576
vn -0.6794 0.4769 0.5576
vn 0.8747 0.4769 0.0862
vn 0.8747 0.4769 0.0861
vn 0.2551 0.4769 -0.8411
vn 0.2552 0.4769 -0.8411
vn -0.7752 0.4769 -0.4143
vn 0.2551 0.4769 0.8411
vn -0.5576 0.4769 0.6794
vn 0.8747 0.4769 -0.0862
vn 0.8747 0.4769 -0.0861
vn 0.0862 0.4769 -0.8747
vn -0.8411 0.4769 -0.2551
vn 0.4143 0.4769 0.7752
vn 0.5556 -0.0000 0.8315
vn -0.2903 -0.0000 0.9569
vn 0.0158 -0.9869 0.1605
vn -0.0158 -0.9869 0.1605
vn -0.0468 -0.9869 0.1543
vn -0.0760 -0.9869 0.1422
vn -0.1023 -0.9869 0.1246
vn -0.1246 -0.9869 0.1023
vn -0.1422 -0.9869 0.0760
vn -0.1543 -0.9869 0.0468
vn -0.1605 -0.9869 0.0158
vn -0.1605 -0.9869 -0.0158
vn -0.1543 -0.9869 -0.0468
vn -0.1422 -0.9869 -0.0760
vn -0.1246 -0.9869 -0.1023
vn -0.1023 -0.9869 -0.1246
vn -0.0760 -0.9869 -0.1422
vn -0.0468 -0.9869 -0.1543
vn -0.0158 -0.9869 -0.1605
vn 0.0158 -0.9869 -0.1605
vn 0.0468 -0.9869 -0.1543
vn 0.0760 -0.9869 -0.1422
vn 0.1023 -0.9869 -0.1246
vn 0.1246 -0.9869 -0.1023
vn 0.1422 -0.9869 -0.0760
vn 0.1543 -0.9869 -0.0468
vn 0.1605 -0.9869 -0.0158
vn 0.1605 -0.9869 0.0158
vn 0.1543 -0.9869 0.0468
vn 0.1422 -0.9869 0.0760
vn 0.1246 -0.9869 0.1023
vn 0.1023 -0.9869 0.1246
vn 0.0760 -0.9869 0.1422
vn 0.0468 -0.9869 0.1543
vt 0.009607 0.597545
vt 0.000000 0.500000
vt 0.915735 0.777785
vt 0.853553 0.853553
vt 0.853553 0.146447
vt 0.915735 0.222215
vt 0.222215 0.084265
vt 0.308658 0.038060
vt 0.500000 1.000000
vt 0.402455 0.990393
vt 0.038060 0.691342
vt 0.961940 0.691342
vt 0.777785 0.084265
vt 0.146447 0.146447
vt 0.084265 0.777785
vt 0.990393 0.597545
vt 0.691342 0.038060
vt 0.084265 0.222215
vt 0.597545 0.990393
vt 0.146447 0.853553
vt 1.000000 0.500000
vt 0.597545 0.009607
vt 0.038060 0.308658
vt 0.691342 0.961940
vt 0.222215 0.915735
vt 0.990393 0.402455
vt 0.500000 0.000000
vt 0.009607 0.402455
vt 0.777785 0.915735
vt 0.308658 0.961940
vt 0.961940 0.308658
vt 0.402455 0.009607
vt 0.000000 0.000000
vt 0.455588 0.723274
vt 0.500000 0.727648
vt 0.544412 0.723274
vt 0.587117 0.710319
vt 0.626475 0.689282
vt 0.660971 0.660971
vt 0.689282 0.626474
vt 0.710319 0.587117
vt 0.723274 0.544412
vt 0.727648 0.500000
vt 0.723274 0.455588
vt 0.710319 0.412883
vt 0.689282 0.373526
vt 0.660971 0.339029
vt 0.626474 0.310718
vt 0.587117 0.289681
vt 0.544412 0.276726
vt 0.500000 0.272352
vt 0.455588 0.276726
vt 0.412883 0.289681
vt 0.373526 0.310718
vt 0.339029 0.339029
vt 0.310718 0.373526
vt 0.289681 0.412883
vt 0.276726 0.455588
vt 0.272352 0.500000
vt 0.276726 0.544412
vt 0.289681 0.587117
vt 0.310718 0.626474
vt 0.339029 0.660971
vt 0.373526 0.689282
vt 0.412883 0.710319
vt 0.770814 0.919461
vt 0.698313 0.958213
vt 0.772100 0.918774
vt 0.697027 0.958901
vt 0.011902 0.394890
vt 0.035766 0.316223
vt 0.011479 0.396286
vt 0.036189 0.314827
vt 0.507867 0.000775
vt 0.589678 0.008833
vt 0.506415 0.000632
vt 0.591130 0.008976
vt 0.991167 0.410322
vt 0.999225 0.492133
vt 0.991024 0.408870
vt 0.999368 0.493585
vt 0.216104 0.910720
vt 0.152557 0.858568
vt 0.217232 0.911645
vt 0.151430 0.857643
vt 0.683777 0.964234
vt 0.605110 0.988098
vt 0.685173 0.963811
vt 0.603714 0.988521
vt 0.041787 0.301687
vt 0.080539 0.229186
vt 0.041099 0.302973
vt 0.081226 0.227900
vt 0.605110 0.011902
vt 0.683777 0.035766
vt 0.603714 0.011479
vt 0.685173 0.036189
vt 0.999225 0.507867
vt 0.991167 0.589678
vt 0.999368 0.506415
vt 0.991024 0.591130
vt 0.141432 0.847443
vt 0.089280 0.783896
vt 0.142357 0.848570
vt 0.088355 0.782768
vt 0.589678 0.991167
vt 0.507867 0.999225
vt 0.591130 0.991024
vt 0.506415 0.999368
vt 0.089280 0.216104
vt 0.141432 0.152557
vt 0.088355 0.217232
vt 0.142357 0.151430
vt 0.698313 0.041787
vt 0.770814 0.080539
vt 0.697027 0.041099
vt 0.772100 0.081226
vt 0.988098 0.605110
vt 0.964235 0.683777
vt 0.988521 0.603714
vt 0.963811 0.685173
vt 0.080539 0.770814
vt 0.041787 0.698313
vt 0.081226 0.772100
vt 0.041099 0.697027
vt 0.152557 0.141432
vt 0.216104 0.089280
vt 0.151430 0.142357
vt 0.217232 0.088355
vt 0.783896 0.089280
vt 0.847443 0.141432
vt 0.782768 0.088355
vt 0.848570 0.142357
vt 0.958213 0.698313
vt 0.919461 0.770814
vt 0.958901 0.697027
vt 0.918774 0.772100
vt 0.035766 0.683777
vt 0.011902 0.605110
vt 0.036189 0.685173
vt 0.011479 0.603714
vt 0.492133 0.999225
vt 0.410322 0.991167
vt 0.493585 0.999368
vt 0.408870 0.991024
vt 0.229186 0.080539
vt 0.301687 0.041787
vt 0.227900 0.081226
vt 0.302973 0.041099
vt 0.858568 0.152557
vt 0.910720 0.216104
vt 0.857643 0.151430
vt 0.911645 0.217232
vt 0.910720 0.783896
vt 0.858568 0.847443
vt 0.911645 0.782768
vt 0.857643 0.848570
vt 0.008833 0.589678
vt 0.000775 0.507867
vt 0.008976 0.591130
vt 0.000632 0.506415
vt 0.316223 0.035766
vt 0.394890 0.011902
vt 0.314827 0.036189
vt 0.396286 0.011479
vt 0.919461 0.229186
vt 0.958213 0.301687
vt 0.918774 0.227900
vt 0.958901 0.302973
vt 0.394890 0.988098
vt 0.316223 0.964234
vt 0.396286 0.988521
vt 0.314827 0.963811
vt 0.847443 0.858568
vt 0.783896 0.910720
vt 0.848570 0.857643
vt 0.782768 0.911645
vt 0.000775 0.492133
vt 0.008833 0.410322
vt 0.000632 0.493585
vt 0.008976 0.408870
vt 0.410322 0.008833
vt 0.492133 0.000775
vt 0.408870 0.008976
vt 0.493585 0.000632
vt 0.964234 0.316223
vt 0.988098 0.394890
vt 0.963811 0.314827
vt 0.988521 0.396286
vt 0.301687 0.958213
vt 0.229186 0.919461
vt 0.302973 0.958901
vt 0.227900 0.918774
vt 0.500000 0.500000
s 0
usemtl Material.001
f 9/1/1 10/2/1 362/2/1 361/1/1
f 29/3/1 30/4/1 382/4/1 381/3/1
f 22/5/1 23/6/1 375/6/1 374/5/1
f 15/7/1 16/8/1 368/8/1 367/7/1
f 2/9/1 3/10/1 354/10/1 355/9/1
f 8/11/1 9/1/1 361/1/1 360/11/1
f 28/12/1 29/3/1 381/3/1 380/12/1
f 21/13/1 22/5/1 374/5/1 373/13/1
f 14/14/1 15/7/1 367/7/1 366/14/1
f 7/15/1 8/11/1 360/11/1 359/15/1
f 27/16/1 28/12/1 380/12/1 379/16/1
f 20/17/1 21/13/1 373/13/1 372/17/1
f 13/18/1 14/14/1 366/14/1 365/18/1
f 33/19/1 2/9/1 355/9/1 385/19/1
f 6/20/1 7/15/1 359/15/1 358/20/1
f 26/21/1 27/16/1 379/16/1 378/21/1
f 19/22/1 20/17/1 372/17/1 371/22/1
f 12/23/1 13/18/1 365/18/1 364/23/1
f 32/24/1 33/19/1 385/19/1 384/24/1
f 5/25/1 6/20/1 358/20/1 357/25/1
f 25/26/1 26/21/1 378/21/1 377/26/1
f 18/27/1 19/22/1 371/22/1 370/27/1
f 11/28/1 12/23/1 364/23/1 363/28/1
f 31/29/1 32/24/1 384/24/1 383/29/1
f 4/30/1 5/25/1 357/25/1 356/30/1
f 24/31/1 25/26/1 377/26/1 376/31/1
f 17/32/1 18/27/1 370/27/1 369/32/1
f 10/2/1 11/28/1 363/28/1 362/2/1
f 30/4/1 31/29/1 383/29/1 382/4/1
f 3/10/1 4/30/1 356/30/1 354/10/1
f 23/6/1 24/31/1 376/31/1 375/6/1
f 16/8/1 17/32/1 369/32/1 368/8/1
f 6/20/2 5/25/2 165/25/2 166/20/2
f 103/33/3 102/33/3 294/33/3 295/33/3
f 50/33/4 53/33/4 244/33/4 242/33/4
f 129/33/5 128/33/5 321/33/5 320/33/5
f 51/33/6 50/33/6 242/33/6 243/33/6
f 31/29/7 30/4/7 190/4/7 191/29/7
f 128/33/8 127/33/8 319/33/8 321/33/8
f 77/33/9 76/33/9 269/33/9 268/33/9
f 5/25/10 4/30/10 164/30/10 165/25/10
f 126/33/11 129/33/11 320/33/11 318/33/11
f 76/33/12 75/33/12 267/33/12 269/33/12
f 30/4/13 29/3/13 189/3/13 190/4/13
f 127/33/14 126/33/14 318/33/14 319/33/14
f 74/33/15 77/33/15 268/33/15 266/33/15
f 153/33/16 152/33/16 345/33/16 344/33/16
f 4/30/17 3/10/17 162/10/17 164/30/17
f 75/33/16 74/33/16 266/33/16 267/33/16
f 152/33/18 151/33/18 343/33/18 345/33/18
f 101/33/6 100/33/6 293/33/6 292/33/6
f 29/3/19 28/12/19 188/12/19 189/3/19
f 150/33/20 153/33/20 344/33/20 342/33/20
f 100/33/21 99/33/21 291/33/21 293/33/21
f 49/33/14 48/33/14 241/33/14 240/33/14
f 151/33/9 150/33/9 342/33/9 343/33/9
f 98/33/22 101/33/22 292/33/22 290/33/22
f 3/10/23 2/9/23 163/9/23 162/10/23
f 48/33/24 47/33/24 239/33/24 241/33/24
f 28/12/25 27/16/25 187/16/25 188/12/25
f 99/33/2 98/33/2 290/33/2 291/33/2
f 46/33/26 49/33/26 240/33/26 238/33/26
f 125/33/13 124/33/13 317/33/13 316/33/13
f 47/33/5 46/33/5 238/33/5 239/33/5
f 27/16/27 26/21/27 186/21/27 187/16/27
f 124/33/28 123/33/28 315/33/28 317/33/28
f 73/33/29 72/33/29 265/33/29 264/33/29
f 122/33/30 125/33/30 316/33/30 314/33/30
f 72/33/22 71/33/22 263/33/22 265/33/22
f 26/21/14 25/26/14 185/26/14 186/21/14
f 123/33/31 122/33/31 314/33/31 315/33/31
f 70/33/32 73/33/32 264/33/32 262/33/32
f 149/33/33 148/33/33 341/33/33 340/33/33
f 71/33/34 70/33/34 262/33/34 263/33/34
f 148/33/26 147/33/26 339/33/26 341/33/26
f 97/33/35 96/33/35 289/33/35 288/33/35
f 25/26/36 24/31/36 184/31/36 185/26/36
f 146/33/37 149/33/37 340/33/37 338/33/37
f 96/33/30 95/33/30 287/33/30 289/33/30
f 45/33/38 44/33/38 237/33/38 236/33/38
f 147/33/27 146/33/27 338/33/27 339/33/27
f 94/33/39 97/33/39 288/33/39 286/33/39
f 44/33/15 43/33/15 235/33/15 237/33/15
f 24/31/40 23/6/40 183/6/40 184/31/40
f 95/33/7 94/33/7 286/33/7 287/33/7
f 42/33/41 45/33/41 236/33/41 234/33/41
f 121/33/34 120/33/34 313/33/34 312/33/34
f 43/33/23 42/33/23 234/33/23 235/33/23
f 23/6/34 22/5/34 182/5/34 183/6/34
f 120/33/4 119/33/4 311/33/4 313/33/4
f 69/33/27 68/33/27 261/33/27 260/33/27
f 118/33/42 121/33/42 312/33/42 310/33/42
f 68/33/11 67/33/11 259/33/11 261/33/11
f 22/5/6 21/13/6 181/13/6 182/5/6
f 119/33/29 118/33/29 310/33/29 311/33/29
f 66/33/43 69/33/43 260/33/43 258/33/43
f 145/33/7 144/33/7 337/33/7 336/33/7
f 67/33/33 66/33/33 258/33/33 259/33/33
f 144/33/44 143/33/44 335/33/44 337/33/44
f 93/33/45 92/33/45 285/33/45 284/33/45
f 21/13/46 20/17/46 180/17/46 181/13/46
f 142/33/47 145/33/47 336/33/47 334/33/47
f 92/33/42 91/33/42 283/33/42 285/33/42
f 41/33/48 40/33/48 233/33/48 232/33/48
f 143/33/35 142/33/35 334/33/35 335/33/35
f 90/33/49 93/33/49 284/33/49 282/33/49
f 40/33/43 39/33/43 231/33/43 233/33/43
f 20/17/50 19/22/50 179/22/50 180/17/50
f 91/33/40 90/33/40 282/33/40 283/33/40
f 38/33/51 41/33/51 232/33/51 230/33/51
f 117/33/52 116/33/52 309/33/52 308/33/52
f 39/33/25 38/33/25 230/33/25 231/33/25
f 19/22/38 18/27/38 178/27/38 179/22/38
f 116/33/47 115/33/47 307/33/47 309/33/47
f 65/33/50 64/33/50 257/33/50 256/33/50
f 114/33/53 117/33/53 308/33/53 306/33/53
f 64/33/54 63/33/54 255/33/54 257/33/54
f 18/27/16 17/32/16 177/32/16 178/27/16
f 115/33/55 114/33/55 306/33/55 307/33/55
f 62/33/56 65/33/56 256/33/56 254/33/56
f 141/33/17 140/33/17 333/33/17 332/33/17
f 63/33/17 62/33/17 254/33/17 255/33/17
f 140/33/41 139/33/41 331/33/41 333/33/41
f 89/33/25 88/33/25 281/33/25 280/33/25
f 17/32/57 16/8/57 176/8/57 177/32/57
f 138/33/58 141/33/58 332/33/58 330/33/58
f 88/33/37 87/33/37 279/33/37 281/33/37
f 37/33/55 36/33/55 229/33/55 228/33/55
f 139/33/50 138/33/50 330/33/50 331/33/50
f 86/33/59 89/33/59 280/33/59 278/33/59
f 36/33/39 35/33/39 227/33/39 229/33/39
f 16/8/52 15/7/52 175/7/52 176/8/52
f 87/33/48 86/33/48 278/33/48 279/33/48
f 34/33/60 37/33/60 228/33/60 226/33/60
f 113/33/23 112/33/23 305/33/23 304/33/23
f 35/33/52 34/33/52 226/33/52 227/33/52
f 15/7/35 14/14/35 174/14/35 175/7/35
f 112/33/20 111/33/20 303/33/20 305/33/20
f 61/33/3 60/33/3 253/33/3 252/33/3
f 110/33/54 113/33/54 304/33/54 302/33/54
f 60/33/59 59/33/59 251/33/59 253/33/59
f 14/14/31 13/18/31 173/18/31 174/14/31
f 111/33/38 110/33/38 302/33/38 303/33/38
f 58/33/28 61/33/28 252/33/28 250/33/28
f 137/33/40 136/33/40 329/33/40 328/33/40
f 59/33/19 58/33/19 250/33/19 251/33/19
f 136/33/32 135/33/32 327/33/32 329/33/32
f 85/33/46 84/33/46 277/33/46 276/33/46
f 13/18/3 12/23/3 172/23/3 173/18/3
f 134/33/61 137/33/61 328/33/61 326/33/61
f 84/33/58 83/33/58 275/33/58 277/33/58
f 135/33/45 134/33/45 326/33/45 327/33/45
f 82/33/62 85/33/62 276/33/62 274/33/62
f 161/33/10 160/33/10 353/33/10 352/33/10
f 12/23/48 11/28/48 171/28/48 172/23/48
f 83/33/10 82/33/10 274/33/10 275/33/10
f 160/33/56 159/33/56 351/33/56 353/33/56
f 109/33/63 108/33/63 301/33/63 300/33/63
f 158/33/21 161/33/21 352/33/21 350/33/21
f 11/28/33 10/2/33 170/2/33 171/28/33
f 108/33/61 107/33/61 299/33/61 301/33/61
f 418/34/64 419/35/64 420/36/64 421/37/64 422/38/64 423/39/64 424/40/64 425/41/64 426/42/64 427/43/64 428/44/64 429/45/64 430/46/64 431/47/64 432/48/64 433/49/64 434/50/64 435/51/64 436/52/64 437/53/64 438/54/64 439/55/64 440/56/64 441/57/64 442/58/64 443/59/64 444/60/64 445/61/64 446/62/64 447/63/64 448/64/64 449/65/64
f 192/24/65 191/29/65 227/66/65 226/67/65
f 191/29/65 223/29/65 229/68/65 227/66/65
f 223/29/65 224/24/65 228/69/65 229/68/65
f 224/24/65 192/24/65 226/67/65 228/69/65
f 172/23/66 171/28/66 231/70/66 230/71/66
f 171/28/66 203/28/66 233/72/66 231/70/66
f 203/28/66 204/23/66 232/73/66 233/72/66
f 204/23/67 172/23/67 230/71/67 232/73/67
f 179/22/68 178/27/68 235/74/68 234/75/68
f 178/27/68 210/27/68 237/76/68 235/74/68
f 210/27/68 211/22/68 236/77/68 237/76/68
f 211/22/68 179/22/68 234/75/68 236/77/68
f 186/21/69 185/26/69 239/78/69 238/79/69
f 185/26/69 217/26/69 241/80/69 239/78/69
f 217/26/69 218/21/69 240/81/69 241/80/69
f 218/21/70 186/21/70 238/79/70 240/81/70
f 166/20/71 165/25/71 243/82/71 242/83/71
f 165/25/71 197/25/71 245/84/71 243/82/71
f 197/25/71 198/20/71 244/85/71 245/84/71
f 198/20/71 166/20/71 242/83/71 244/85/71
f 193/19/72 192/24/72 247/86/72 246/87/72
f 192/24/72 224/24/72 249/88/72 247/86/72
f 224/24/73 225/19/73 248/89/73 249/88/73
f 225/19/72 193/19/72 246/87/72 248/89/72
f 173/18/74 172/23/74 251/90/74 250/91/74
f 172/23/74 204/23/74 253/92/74 251/90/74
f 204/23/74 205/18/74 252/93/74 253/92/74
f 205/18/74 173/18/74 250/91/74 252/93/74
f 180/17/75 179/22/75 255/94/75 254/95/75
f 179/22/75 211/22/75 257/96/75 255/94/75
f 211/22/75 212/17/75 256/97/75 257/96/75
f 212/17/75 180/17/75 254/95/75 256/97/75
f 187/16/76 186/21/76 259/98/76 258/99/76
f 186/21/77 218/21/77 261/100/77 259/98/77
f 218/21/76 219/16/76 260/101/76 261/100/76
f 219/16/76 187/16/76 258/99/76 260/101/76
f 167/15/78 166/20/78 263/102/78 262/103/78
f 166/20/78 198/20/78 265/104/78 263/102/78
f 198/20/78 199/15/78 264/105/78 265/104/78
f 199/15/78 167/15/78 262/103/78 264/105/78
f 163/9/79 193/19/79 267/106/79 266/107/79
f 193/19/79 225/19/79 269/108/79 267/106/79
f 225/19/79 195/9/79 268/109/79 269/108/79
f 195/9/79 163/9/79 266/107/79 268/109/79
f 174/14/80 173/18/80 271/110/80 270/111/80
f 173/18/80 205/18/80 273/112/80 271/110/80
f 205/18/80 206/14/80 272/113/80 273/112/80
f 206/14/80 174/14/80 270/111/80 272/113/80
f 181/13/81 180/17/81 275/114/81 274/115/81
f 180/17/81 212/17/81 277/116/81 275/114/81
f 212/17/81 213/13/81 276/117/81 277/116/81
f 213/13/81 181/13/81 274/115/81 276/117/81
f 188/12/82 187/16/82 279/118/82 278/119/82
f 187/16/82 219/16/82 281/120/82 279/118/82
f 219/16/82 220/12/82 280/121/82 281/120/82
f 220/12/82 188/12/82 278/119/82 280/121/82
f 168/11/83 167/15/83 283/122/83 282/123/83
f 167/15/83 199/15/83 285/124/83 283/122/83
f 199/15/83 200/11/83 284/125/83 285/124/83
f 200/11/83 168/11/83 282/123/83 284/125/83
f 175/7/84 174/14/84 287/126/84 286/127/84
f 174/14/84 206/14/84 289/128/84 287/126/84
f 206/14/84 207/7/84 288/129/84 289/128/84
f 207/7/84 175/7/84 286/127/84 288/129/84
f 182/5/85 181/13/85 291/130/85 290/131/85
f 181/13/85 213/13/85 293/132/85 291/130/85
f 213/13/85 214/5/85 292/133/85 293/132/85
f 214/5/85 182/5/85 290/131/85 292/133/85
f 189/3/86 188/12/86 295/134/86 294/135/86
f 188/12/86 220/12/86 297/136/86 295/134/86
f 220/12/86 221/3/86 296/137/86 297/136/86
f 221/3/86 189/3/86 294/135/86 296/137/86
f 169/1/87 168/11/87 299/138/87 298/139/87
f 168/11/87 200/11/87 301/140/87 299/138/87
f 200/11/87 201/1/87 300/141/87 301/140/87
f 201/1/87 169/1/87 298/139/87 300/141/87
f 162/10/88 163/9/88 303/142/88 302/143/88
f 163/9/88 195/9/88 305/144/88 303/142/88
f 195/9/88 194/10/88 304/145/88 305/144/88
f 194/10/88 162/10/88 302/143/88 304/145/88
f 176/8/89 175/7/89 307/146/89 306/147/89
f 175/7/89 207/7/89 309/148/89 307/146/89
f 207/7/89 208/8/89 308/149/89 309/148/89
f 208/8/89 176/8/89 306/147/89 308/149/89
f 183/6/90 182/5/90 311/150/90 310/151/90
f 182/5/90 214/5/90 313/152/90 311/150/90
f 214/5/90 215/6/90 312/153/90 313/152/90
f 215/6/90 183/6/90 310/151/90 312/153/90
f 190/4/91 189/3/91 315/154/91 314/155/91
f 189/3/91 221/3/91 317/156/91 315/154/91
f 221/3/91 222/4/91 316/157/91 317/156/91
f 222/4/91 190/4/91 314/155/91 316/157/91
f 170/2/92 169/1/92 319/158/92 318/159/92
f 169/1/92 201/1/92 321/160/92 319/158/92
f 201/1/92 202/2/92 320/161/92 321/160/92
f 202/2/93 170/2/93 318/159/93 320/161/93
f 177/32/94 176/8/94 323/162/94 322/163/94
f 176/8/94 208/8/94 325/164/94 323/162/94
f 208/8/95 209/32/95 324/165/95 325/164/95
f 209/32/94 177/32/94 322/163/94 324/165/94
f 184/31/96 183/6/96 327/166/96 326/167/96
f 183/6/96 215/6/96 329/168/96 327/166/96
f 215/6/96 216/31/96 328/169/96 329/168/96
f 216/31/96 184/31/96 326/167/96 328/169/96
f 164/30/97 162/10/97 331/170/97 330/171/97
f 162/10/97 194/10/97 333/172/97 331/170/97
f 194/10/97 196/30/97 332/173/97 333/172/97
f 196/30/97 164/30/97 330/171/97 332/173/97
f 191/29/98 190/4/98 335/174/98 334/175/98
f 190/4/98 222/4/98 337/176/98 335/174/98
f 222/4/98 223/29/98 336/177/98 337/176/98
f 223/29/98 191/29/98 334/175/98 336/177/98
f 171/28/99 170/2/99 339/178/99 338/179/99
f 170/2/100 202/2/100 341/180/100 339/178/100
f 202/2/99 203/28/99 340/181/99 341/180/99
f 203/28/99 171/28/99 338/179/99 340/181/99
f 178/27/101 177/32/101 343/182/101 342/183/101
f 177/32/101 209/32/101 345/184/101 343/182/101
f 209/32/101 210/27/101 344/185/101 345/184/101
f 210/27/101 178/27/101 342/183/101 344/185/101
f 185/26/102 184/31/102 347/186/102 346/187/102
f 184/31/102 216/31/102 349/188/102 347/186/102
f 216/31/102 217/26/102 348/189/102 349/188/102
f 217/26/102 185/26/102 346/187/102 348/189/102
f 165/25/103 164/30/103 351/190/103 350/191/103
f 164/30/103 196/30/103 353/192/103 351/190/103
f 196/30/103 197/25/103 352/193/103 353/192/103
f 197/25/103 165/25/103 350/191/103 352/193/103
f 32/24/55 31/29/55 191/29/55 192/24/55
f 52/33/62 51/33/62 243/33/62 245/33/62
f 102/33/104 105/33/104 296/33/104 294/33/104
f 155/33/63 154/33/63 346/33/63 347/33/63
f 53/33/2 52/33/2 245/33/2 244/33/2
f 104/33/51 103/33/51 295/33/51 297/33/51
f 7/15/29 6/20/29 166/20/29 167/15/29
f 154/33/8 157/33/8 348/33/8 346/33/8
f 33/19/105 32/24/105 192/24/105 193/19/105
f 105/33/19 104/33/19 297/33/19 296/33/19
f 156/33/49 155/33/49 347/33/49 349/33/49
f 79/33/13 78/33/13 270/33/13 271/33/13
f 8/11/45 7/15/45 167/15/45 168/11/45
f 157/33/36 156/33/36 349/33/36 348/33/36
f 78/33/44 81/33/44 272/33/44 270/33/44
f 131/33/105 130/33/105 322/33/105 323/33/105
f 2/9/9 33/19/9 193/19/9 163/9/9
f 80/33/104 79/33/104 271/33/104 273/33/104
f 130/33/12 133/33/12 324/33/12 322/33/12
f 9/1/63 8/11/63 168/11/63 169/1/63
f 81/33/31 80/33/31 273/33/31 272/33/31
f 132/33/60 131/33/60 323/33/60 325/33/60
f 55/33/57 54/33/57 246/33/57 247/33/57
f 133/33/57 132/33/57 325/33/57 324/33/57
f 54/33/18 57/33/18 248/33/18 246/33/18
f 107/33/36 106/33/36 298/33/36 299/33/36
f 10/2/5 9/1/5 169/1/5 170/2/5
f 56/33/53 55/33/53 247/33/53 249/33/53
f 106/33/24 109/33/24 300/33/24 298/33/24
f 159/33/46 158/33/46 350/33/46 351/33/46
f 57/33/105 56/33/105 249/33/105 248/33/105
f 371/22/17 372/17/17 404/17/17 403/22/17
f 364/23/19 365/18/19 397/18/19 396/23/19
f 384/24/57 385/19/57 417/19/57 416/24/57
f 357/25/6 358/20/6 390/20/6 389/25/6
f 377/26/5 378/21/5 410/21/5 409/26/5
f 370/27/23 371/22/23 403/22/23 402/27/23
f 363/28/25 364/23/25 396/23/25 395/28/25
f 383/29/52 384/24/52 416/24/52 415/29/52
f 356/30/46 357/25/46 389/25/46 388/30/46
f 376/31/63 377/26/63 409/26/63 408/31/63
f 369/32/9 370/27/9 402/27/9 401/32/9
f 362/2/27 363/28/27 395/28/27 394/2/27
f 382/4/35 383/29/35 415/29/35 414/4/35
f 354/10/50 356/30/50 388/30/50 1/10/50
f 375/6/45 376/31/45 408/31/45 407/6/45
f 368/8/105 369/32/105 401/32/105 400/8/105
f 361/1/14 362/2/14 394/2/14 393/1/14
f 381/3/31 382/4/31 414/4/31 413/3/31
f 374/5/29 375/6/29 407/6/29 406/5/29
f 367/7/55 368/8/55 400/8/55 399/7/55
f 355/9/38 354/10/38 1/10/38 386/9/38
f 360/11/36 361/1/36 393/1/36 392/11/36
f 380/12/3 381/3/3 413/3/3 412/12/3
f 373/13/2 374/5/2 406/5/2 405/13/2
f 366/14/7 367/7/7 399/7/7 398/14/7
f 359/15/40 360/11/40 392/11/40 391/15/40
f 379/16/48 380/12/48 412/12/48 411/16/48
f 372/17/10 373/13/10 405/13/10 404/17/10
f 365/18/13 366/14/13 398/14/13 397/18/13
f 385/19/16 355/9/16 386/9/16 417/19/16
f 358/20/34 359/15/34 391/15/34 390/20/34
f 378/21/33 379/16/33 411/16/33 410/21/33
f 387/194/1 386/9/1 1/10/1
f 387/194/1 1/10/1 388/30/1
f 387/194/1 388/30/1 389/25/1
f 387/194/1 389/25/1 390/20/1
f 387/194/1 390/20/1 391/15/1
f 387/194/1 391/15/1 392/11/1
f 387/194/1 392/11/1 393/1/1
f 387/194/1 393/1/1 394/2/1
f 387/194/1 394/2/1 395/28/1
f 387/194/1 395/28/1 396/23/1
f 387/194/1 396/23/1 397/18/1
f 387/194/1 397/18/1 398/14/1
f 387/194/1 398/14/1 399/7/1
f 387/194/1 399/7/1 400/8/1
f 387/194/1 400/8/1 401/32/1
f 387/194/1 401/32/1 402/27/1
f 387/194/1 402/27/1 403/22/1
f 387/194/1 403/22/1 404/17/1
f 387/194/1 404/17/1 405/13/1
f 387/194/1 405/13/1 406/5/1
f 387/194/1 406/5/1 407/6/1
f 387/194/1 407/6/1 408/31/1
f 387/194/1 408/31/1 409/26/1
f 387/194/1 409/26/1 410/21/1
f 387/194/1 410/21/1 411/16/1
f 387/194/1 411/16/1 412/12/1
f 387/194/1 412/12/1 413/3/1
f 387/194/1 413/3/1 414/4/1
f 387/194/1 414/4/1 415/29/1
f 387/194/1 415/29/1 416/24/1
f 387/194/1 416/24/1 417/19/1
f 387/194/1 417/19/1 386/9/1
f 194/10/106 195/9/106 419/35/106 418/34/106
f 195/9/107 225/19/107 420/36/107 419/35/107
f 225/19/108 224/24/108 421/37/108 420/36/108
f 224/24/109 223/29/109 422/38/109 421/37/109
f 223/29/110 222/4/110 423/39/110 422/38/110
f 222/4/111 221/3/111 424/40/111 423/39/111
f 221/3/112 220/12/112 425/41/112 424/40/112
f 220/12/113 219/16/113 426/42/113 425/41/113
f 219/16/114 218/21/114 427/43/114 426/42/114
f 218/21/115 217/26/115 428/44/115 427/43/115
f 217/26/116 216/31/116 429/45/116 428/44/116
f 216/31/117 215/6/117 430/46/117 429/45/117
f 215/6/118 214/5/118 431/47/118 430/46/118
f 214/5/119 213/13/119 432/48/119 431/47/119
f 213/13/120 212/17/120 433/49/120 432/48/120
f 212/17/121 211/22/121 434/50/121 433/49/121
f 211/22/122 210/27/122 435/51/122 434/50/122
f 210/27/123 209/32/123 436/52/123 435/51/123
f 209/32/124 208/8/124 437/53/124 436/52/124
f 208/8/125 207/7/125 438/54/125 437/53/125
f 207/7/126 206/14/126 439/55/126 438/54/126
f 206/14/127 205/18/127 440/56/127 439/55/127
f 205/18/128 204/23/128 441/57/128 440/56/128
f 204/23/129 203/28/129 442/58/129 441/57/129
f 203/28/130 202/2/130 443/59/130 442/58/130
f 202/2/131 201/1/131 444/60/131 443/59/131
f 201/1/132 200/11/132 445/61/132 444/60/132
f 200/11/133 199/15/133 446/62/133 445/61/133
f 199/15/134 198/20/134 447/63/134 446/62/134
f 198/20/135 197/25/135 448/64/135 447/63/135
f 197/25/136 196/30/136 449/65/136 448/64/136
f 196/30/137 194/10/137 418/34/137 449/65/137
f 359/15/1 358/20/1 454/20/1 455/15/1
f 452/33/64 450/33/64 451/33/64 481/33/64 480/33/64 479/33/64 478/33/64 477/33/64 476/33/64 475/33/64 474/33/64 473/33/64 472/33/64 471/33/64 470/33/64 469/33/64 468/33/64 467/33/64 466/33/64 465/33/64 464/33/64 463/33/64 462/33/64 461/33/64 460/33/64 459/33/64 458/33/64 457/33/64 456/33/64 455/33/64 454/33/64 453/33/64
f 355/9/1 385/19/1 481/19/1 451/9/1
f 366/14/1 365/18/1 461/18/1 462/14/1
f 373/13/1 372/17/1 468/17/1 469/13/1
f 380/12/1 379/16/1 475/16/1 476/12/1
f 360/11/1 359/15/1 455/15/1 456/11/1
f 367/7/1 366/14/1 462/14/1 463/7/1
f 374/5/1 373/13/1 469/13/1 470/5/1
f 381/3/1 380/12/1 476/12/1 477/3/1
f 361/1/1 360/11/1 456/11/1 457/1/1
f 354/10/1 355/9/1 451/9/1 450/10/1
f 368/8/1 367/7/1 463/7/1 464/8/1
f 375/6/1 374/5/1 470/5/1 471/6/1
f 382/4/1 381/3/1 477/3/1 478/4/1
f 362/2/1 361/1/1 457/1/1 458/2/1
f 369/32/1 368/8/1 464/8/1 465/32/1
f 376/31/1 375/6/1 471/6/1 472/31/1
f 356/30/1 354/10/1 450/10/1 452/30/1
f 383/29/1 382/4/1 478/4/1 479/29/1
f 363/28/1 362/2/1 458/2/1 459/28/1
f 370/27/1 369/32/1 465/32/1 466/27/1
f 377/26/1 376/31/1 472/31/1 473/26/1
f 357/25/1 356/30/1 452/30/1 453/25/1
f 384/24/1 383/29/1 479/29/1 480/24/1
f 364/23/1 363/28/1 459/28/1 460/23/1
f 371/22/1 370/27/1 466/27/1 467/22/1
f 378/21/1 377/26/1 473/26/1 474/21/1
f 358/20/1 357/25/1 453/25/1 454/20/1
f 385/19/1 384/24/1 480/24/1 481/19/1
f 365/18/1 364/23/1 460/23/1 461/18/1
f 372/17/1 371/22/1 467/22/1 468/17/1
f 379/16/1 378/21/1 474/21/1 475/16/1
