mtllib map.mtl
# vertices
v -304 -16 -208
v -304 -16 320
v -304 16 320
v -304 16 -208
v 192 16 320
v 192 -16 320
v 192 -16 -208
v 192 16 -208
v 0 16 62
v 0 16 64
v 0 35 64
v 0 35 62
v 2 35 64
v 2 16 64
v 2 16 62
v 2 35 62
v 0 16 48
v 0 16 50
v 0 35 50
v 0 35 48
v 2 35 50
v 2 16 50
v 2 16 48
v 2 35 48
v 30 16 62
v 30 16 64
v 30 35 64
v 30 35 62
v 32 35 64
v 32 16 64
v 32 16 62
v 32 35 62
v 30 16 48
v 30 16 50
v 30 35 50
v 30 35 48
v 32 35 50
v 32 16 50
v 32 16 48
v 32 35 48
v 0 35 48
v 0 35 64
v 0 36 64
v 0 36 48
v 32 36 64
v 32 35 64
v 32 35 48
v 32 36 48
v -168 16 8
v -168 16 24
v -168 72 24
v -168 72 8
v -48 72 24
v -48 16 24
v -48 16 8
v -48 72 8
v 112 16 56
v 112 16 176
v 112 88 176
v 112 88 56
v 120 88 176
v 120 16 176
v 120 16 56
v 120 88 56

# texture coordinates
vt 0.40625 -0.03125
vt -0.625 -0.03125
vt -0.625 0.03125
vt 0.40625 0.03125
vt 0.375 0.03125
vt -0.59375 0.03125
vt -0.59375 -0.03125
vt 0.375 -0.03125
vt 0.375 -0.625
vt -0.59375 -0.625
vt -0.59375 0.40625
vt 0.375 0.40625
vt -0.12109375 0.03125
vt -0.125 0.03125
vt -0.125 0.068359375
vt -0.12109375 0.068359375
vt 0.00390625 0.068359375
vt 0 0.068359375
vt 0 0.03125
vt 0.00390625 0.03125
vt 0.00390625 -0.125
vt 0 -0.125
vt 0 -0.12109375
vt 0.00390625 -0.12109375
vt -0.09375 0.03125
vt -0.09765625 0.03125
vt -0.09765625 0.068359375
vt -0.09375 0.068359375
vt 0.00390625 -0.09765625
vt 0 -0.09765625
vt 0 -0.09375
vt 0.00390625 -0.09375
vt 0.0625 0.068359375
vt 0.05859375 0.068359375
vt 0.05859375 0.03125
vt 0.0625 0.03125
vt 0.0625 -0.125
vt 0.05859375 -0.125
vt 0.05859375 -0.12109375
vt 0.0625 -0.12109375
vt 0.0625 -0.09765625
vt 0.05859375 -0.09765625
vt 0.05859375 -0.09375
vt 0.0625 -0.09375
vt -1.875 1.3671875
vt -2.5 1.3671875
vt -2.5 1.40625
vt -1.875 1.40625
vt 1.25 1.40625
vt 0 1.40625
vt 0 1.3671875
vt 1.25 1.3671875
vt 1.25 -2.5
vt 0 -2.5
vt 0 -1.875
vt 1.25 -1.875
vt -0.03125 0.0625
vt -0.09375 0.0625
vt -0.09375 0.28125
vt -0.03125 0.28125
vt -0.1875 0.28125
vt -0.65625 0.28125
vt -0.65625 0.0625
vt -0.1875 0.0625
vt -0.1875 -0.09375
vt -0.65625 -0.09375
vt -0.65625 -0.03125
vt -0.1875 -0.03125
vt -0.21875 0.0625
vt -0.6875 0.0625
vt -0.6875 0.34375
vt -0.21875 0.34375
vt 0.46875 0.34375
vt 0.4375 0.34375
vt 0.4375 0.0625
vt 0.46875 0.0625
vt 0.46875 -0.6875
vt 0.4375 -0.6875
vt 0.4375 -0.21875
vt 0.46875 -0.21875

# normals
vn -1 0 -0
vn 0 0 1
vn 0 -1 -0
vn 0 1 -0
vn 0 0 -1
vn 1 0 -0

o entity0_brush0
usemtl Dirt/Dirt_02-512x512
f  1/1/1  2/2/1  3/3/1  4/4/1
usemtl Dirt/Dirt_02-512x512
f  5/5/2  3/6/2  2/7/2  6/8/2
usemtl Dirt/Dirt_02-512x512
f  6/9/3  2/10/3  1/11/3  7/12/3
usemtl Dirt/Dirt_02-512x512
f  8/12/4  4/11/4  3/10/4  5/9/4
usemtl Dirt/Dirt_02-512x512
f  7/8/5  1/7/5  4/6/5  8/5/5
usemtl Dirt/Dirt_02-512x512
f  8/4/6  5/3/6  6/2/6  7/1/6

o entity0_brush1
usemtl Wood/Wood_08-512x512
f  9/13/1  10/14/1  11/15/1  12/16/1
usemtl Wood/Wood_08-512x512
f  13/17/2  11/18/2  10/19/2  14/20/2
usemtl Wood/Wood_08-512x512
f  14/21/3  10/22/3  9/23/3  15/24/3
usemtl Wood/Wood_08-512x512
f  16/24/4  12/23/4  11/22/4  13/21/4
usemtl Wood/Wood_08-512x512
f  15/20/5  9/19/5  12/18/5  16/17/5
usemtl Wood/Wood_08-512x512
f  16/16/6  13/15/6  14/14/6  15/13/6

o entity0_brush2
usemtl Wood/Wood_08-512x512
f  17/25/1  18/26/1  19/27/1  20/28/1
usemtl Wood/Wood_08-512x512
f  21/17/2  19/18/2  18/19/2  22/20/2
usemtl Wood/Wood_08-512x512
f  22/29/3  18/30/3  17/31/3  23/32/3
usemtl Wood/Wood_08-512x512
f  24/32/4  20/31/4  19/30/4  21/29/4
usemtl Wood/Wood_08-512x512
f  23/20/5  17/19/5  20/18/5  24/17/5
usemtl Wood/Wood_08-512x512
f  24/28/6  21/27/6  22/26/6  23/25/6

o entity0_brush3
usemtl Wood/Wood_08-512x512
f  25/13/1  26/14/1  27/15/1  28/16/1
usemtl Wood/Wood_08-512x512
f  29/33/2  27/34/2  26/35/2  30/36/2
usemtl Wood/Wood_08-512x512
f  30/37/3  26/38/3  25/39/3  31/40/3
usemtl Wood/Wood_08-512x512
f  32/40/4  28/39/4  27/38/4  29/37/4
usemtl Wood/Wood_08-512x512
f  31/36/5  25/35/5  28/34/5  32/33/5
usemtl Wood/Wood_08-512x512
f  32/16/6  29/15/6  30/14/6  31/13/6

o entity0_brush4
usemtl Wood/Wood_08-512x512
f  33/25/1  34/26/1  35/27/1  36/28/1
usemtl Wood/Wood_08-512x512
f  37/33/2  35/34/2  34/35/2  38/36/2
usemtl Wood/Wood_08-512x512
f  38/41/3  34/42/3  33/43/3  39/44/3
usemtl Wood/Wood_08-512x512
f  40/44/4  36/43/4  35/42/4  37/41/4
usemtl Wood/Wood_08-512x512
f  39/36/5  33/35/5  36/34/5  40/33/5
usemtl Wood/Wood_08-512x512
f  40/28/6  37/27/6  38/26/6  39/25/6

o entity0_brush5
usemtl Wood/Wood_08-512x512
f  41/45/1  42/46/1  43/47/1  44/48/1
usemtl Wood/Wood_08-512x512
f  45/49/2  43/50/2  42/51/2  46/52/2
usemtl Wood/Wood_08-512x512
f  46/53/3  42/54/3  41/55/3  47/56/3
usemtl Wood/Wood_08-512x512
f  48/56/4  44/55/4  43/54/4  45/53/4
usemtl Wood/Wood_08-512x512
f  47/52/5  41/51/5  44/50/5  48/49/5
usemtl Wood/Wood_08-512x512
f  48/48/6  45/47/6  46/46/6  47/45/6

o entity0_brush6
usemtl Brick/Brick_17-512x512
f  49/57/1  50/58/1  51/59/1  52/60/1
usemtl Brick/Brick_17-512x512
f  53/61/2  51/62/2  50/63/2  54/64/2
usemtl Brick/Brick_17-512x512
f  54/65/3  50/66/3  49/67/3  55/68/3
usemtl Brick/Brick_17-512x512
f  56/68/4  52/67/4  51/66/4  53/65/4
usemtl Brick/Brick_17-512x512
f  55/64/5  49/63/5  52/62/5  56/61/5
usemtl Brick/Brick_17-512x512
f  56/60/6  53/59/6  54/58/6  55/57/6

o entity0_brush7
usemtl Brick/Brick_17-512x512
f  57/69/1  58/70/1  59/71/1  60/72/1
usemtl Brick/Brick_17-512x512
f  61/73/2  59/74/2  58/75/2  62/76/2
usemtl Brick/Brick_17-512x512
f  62/77/3  58/78/3  57/79/3  63/80/3
usemtl Brick/Brick_17-512x512
f  64/80/4  60/79/4  59/78/4  61/77/4
usemtl Brick/Brick_17-512x512
f  63/76/5  57/75/5  60/74/5  64/73/5
usemtl Brick/Brick_17-512x512
f  64/72/6  61/71/6  62/70/6  63/69/6

