mtllib map.mtl
# vertices
v -384 104 -66
v -384 104 322
v -384 128 322
v -384 128 -66
v -62 128 322
v -62 104 322
v -62 104 -66
v -62 128 -66
v -290 -32 -336
v -290 -32 548
v -290 670 548
v -290 670 -336
v -256 670 548
v -256 -32 548
v -256 -32 -336
v -256 670 -336
v -94 504 300
v -94 10 300
v -94 10 330
v -94 504 330
v -84 10 290
v -84 504 290
v -54 504 330
v -54 10 330
v -54 10 290
v -54 504 290
v -94 10 -74
v -94 10 -44
v -94 504 -44
v -94 504 -74
v -84 10 -34
v -84 504 -34
v -54 504 -34
v -54 10 -34
v -54 10 -74
v -54 504 -74
v -66 240 -34
v -66 240 290
v -66 244 290
v -66 244 -34
v -62 244 290
v -62 240 290
v -62 240 -34
v -62 244 -34
v -66 144 66
v -66 144 70
v -66 234 70
v -66 234 66
v -62 234 70
v -62 144 70
v -62 144 66
v -62 234 66
v -66 144 186
v -66 144 190
v -66 234 190
v -66 234 186
v -62 234 190
v -62 144 190
v -62 144 186
v -62 234 186
v -66 234 -34
v -66 234 290
v -66 238 290
v -66 238 -34
v -62 238 290
v -62 234 290
v -62 234 -34
v -62 238 -34
v -66 144 126
v -66 144 130
v -66 234 130
v -66 234 126
v -62 234 130
v -62 144 130
v -62 144 126
v -62 234 126
v -66 144 250
v -66 144 254
v -66 234 254
v -66 234 250
v -62 234 254
v -62 144 254
v -62 144 250
v -62 234 250
v -66 144 2
v -66 144 6
v -66 234 6
v -66 234 2
v -62 234 6
v -62 144 6
v -62 144 2
v -62 234 2
v -66 140 -34
v -66 140 290
v -66 144 290
v -66 144 -34
v -62 144 290
v -62 140 290
v -62 140 -34
v -62 144 -34
v -256 234 318
v -256 234 322
v -256 238 322
v -256 238 318
v -94 238 322
v -94 234 322
v -94 234 318
v -94 238 318
v -144 144 318
v -144 144 322
v -144 234 322
v -144 234 318
v -140 234 322
v -140 144 322
v -140 144 318
v -140 234 318
v -256 140 318
v -256 140 322
v -256 144 322
v -256 144 318
v -94 144 322
v -94 140 322
v -94 140 318
v -94 144 318
v -256 240 318
v -256 240 322
v -256 244 322
v -256 244 318
v -94 244 322
v -94 240 322
v -94 240 318
v -94 244 318
v -210 144 318
v -210 144 322
v -210 234 322
v -210 234 318
v -206 234 322
v -206 144 322
v -206 144 318
v -206 234 318
v -256 234 -66
v -256 234 -62
v -256 238 -62
v -256 238 -66
v -94 238 -62
v -94 234 -62
v -94 234 -66
v -94 238 -66
v -144 144 -66
v -144 144 -62
v -144 234 -62
v -144 234 -66
v -140 234 -62
v -140 144 -62
v -140 144 -66
v -140 234 -66
v -256 140 -66
v -256 140 -62
v -256 144 -62
v -256 144 -66
v -94 144 -62
v -94 140 -62
v -94 140 -66
v -94 144 -66
v -256 240 -66
v -256 240 -62
v -256 244 -62
v -256 244 -66
v -94 244 -62
v -94 240 -62
v -94 240 -66
v -94 244 -66
v -210 144 -66
v -210 144 -62
v -210 234 -62
v -210 234 -66
v -206 234 -62
v -206 144 -62
v -206 144 -66
v -206 234 -66

# texture coordinates
vt 1.03125 1.625
vt -5.03125 1.625
vt -5.03125 2
vt 1.03125 2
vt -0.96875 2
vt -6 2
vt -6 1.625
vt -0.96875 1.625
vt -0.96875 -5.03125
vt -6 -5.03125
vt -6 1.03125
vt -0.96875 1.03125
vt 5.21875 -0.5
vt -8.59375 -0.5
vt -8.59375 10.46875
vt 5.21875 10.46875
vt -4.46875 10.46875
vt -5 10.46875
vt -5 -0.5
vt -4.46875 -0.5
vt -4.46875 -8.59375
vt -5 -8.59375
vt -5 5.21875
vt -4.46875 5.21875
vt -4.5625 7.875
vt -4.5625 0.15625
vt -5.03125 0.15625
vt -5.03125 7.875
vt -4.40625 0.15625
vt -4.40625 7.875
vt -0.96875 7.875
vt -1.59375 7.875
vt -1.59375 0.15625
vt -0.96875 0.15625
vt -1.59375 -5.03125
vt -1.59375 -4.5625
vt -1.4375 -4.40625
vt -0.96875 -4.40625
vt -1.4375 0.15625
vt -1.4375 7.875
vt -1.03125 0.15625
vt -0.5625 0.15625
vt -0.5625 7.875
vt -1.03125 7.875
vt -0.40625 0.15625
vt -0.40625 7.875
vt -0.96875 -0.40625
vt -1.4375 -0.40625
vt -1.59375 -0.5625
vt -1.59375 -1.03125
vt -0.96875 -1.03125
vt 0.53125 3.71875
vt -4.53125 3.71875
vt -4.53125 3.78125
vt 0.53125 3.78125
vt -0.96875 3.78125
vt -1.03125 3.78125
vt -1.03125 3.71875
vt -0.96875 3.71875
vt -0.96875 -4.53125
vt -1.03125 -4.53125
vt -1.03125 0.53125
vt -0.96875 0.53125
vt -1 2
vt -1.0625 2
vt -1.0625 3.40625
vt -1 3.40625
vt -0.75 3.40625
vt -0.8125 3.40625
vt -0.8125 2
vt -0.75 2
vt -0.75 -1.0625
vt -0.8125 -1.0625
vt -0.8125 -1
vt -0.75 -1
vt -3 2
vt -3.0625 2
vt -3.0625 3.40625
vt -3 3.40625
vt -0.75 -3.0625
vt -0.8125 -3.0625
vt -0.8125 -3
vt -0.75 -3
vt 0.53125 3.65625
vt -4.53125 3.65625
vt -1.03125 3.65625
vt -0.96875 3.65625
vt -2 2
vt -2.0625 2
vt -2.0625 3.40625
vt -2 3.40625
vt -0.75 -2.0625
vt -0.8125 -2.0625
vt -0.8125 -2
vt -0.75 -2
vt -4 2
vt -4.0625 2
vt -4.0625 3.40625
vt -4 3.40625
vt -0.75 -4.0625
vt -0.8125 -4.0625
vt -0.8125 -4
vt -0.75 -4
vt 0 2
vt -0.0625 2
vt -0.0625 3.40625
vt 0 3.40625
vt -0.75 -0.0625
vt -0.8125 -0.0625
vt -0.8125 -0
vt -0.75 -0
vt 0.65625 2
vt -4.40625 2
vt -4.40625 2.0625
vt 0.65625 2.0625
vt -1 2.0625
vt -1.0625 2.0625
vt -1 -4.40625
vt -1.0625 -4.40625
vt -1.0625 0.65625
vt -1 0.65625
vt -4.28125 3.65625
vt -4.34375 3.65625
vt -4.34375 3.71875
vt -4.28125 3.71875
vt -3.5 3.71875
vt -3.5 3.65625
vt -0.96875 -4.34375
vt -3.5 -4.34375
vt -3.5 -4.28125
vt -0.96875 -4.28125
vt -4.96875 2.25
vt -5.03125 2.25
vt -5.03125 3.65625
vt -4.96875 3.65625
vt -2.03125 3.65625
vt -2.09375 3.65625
vt -2.09375 2.25
vt -2.03125 2.25
vt -2.03125 -5.03125
vt -2.09375 -5.03125
vt -2.09375 -4.96875
vt -2.03125 -4.96875
vt -4.9375 2
vt -5 2
vt -5 2.0625
vt -4.9375 2.0625
vt -1.46875 2.0625
vt -4 2.0625
vt -1.46875 2
vt -1.46875 -5
vt -4 -5
vt -4 -4.9375
vt -1.46875 -4.9375
vt -4.96875 3.71875
vt -5.03125 3.71875
vt -5.03125 3.78125
vt -4.96875 3.78125
vt -2.0625 3.78125
vt -4.59375 3.78125
vt -4.59375 3.71875
vt -2.0625 3.71875
vt -2.0625 -5.03125
vt -4.59375 -5.03125
vt -4.59375 -4.96875
vt -2.0625 -4.96875
vt -3 3.65625
vt -3.0625 3.65625
vt -3.0625 2.25
vt -3 2.25
vt -3 -5.03125
vt -3.0625 -5.03125
vt -3.0625 -4.96875
vt -3 -4.96875
vt 0.71875 3.65625
vt 0.65625 3.65625
vt 0.65625 3.71875
vt 0.71875 3.71875
vt -0.96875 0.65625
vt -3.5 0.65625
vt -3.5 0.71875
vt -0.96875 0.71875
vt 1.03125 2.25
vt 0.96875 2.25
vt 0.96875 3.65625
vt 1.03125 3.65625
vt -2.03125 0.96875
vt -2.09375 0.96875
vt -2.09375 1.03125
vt -2.03125 1.03125
vt 1.0625 2
vt 1 2
vt 1 2.0625
vt 1.0625 2.0625
vt -1.46875 1
vt -4 1
vt -4 1.0625
vt -1.46875 1.0625
vt 1.03125 3.71875
vt 0.96875 3.71875
vt 0.96875 3.78125
vt 1.03125 3.78125
vt -2.0625 0.96875
vt -4.59375 0.96875
vt -4.59375 1.03125
vt -2.0625 1.03125
vt -3 0.96875
vt -3.0625 0.96875
vt -3.0625 1.03125
vt -3 1.03125

# normals
vn -1 0 -0
vn 0 0 1
vn 0 -1 -0
vn 0 1 -0
vn 0 0 -1
vn 1 0 -0
vn -0.7071067811865475 0 -0.7071067811865475
vn -0.7071067811865475 0 0.7071067811865475

o entity0_brush0
usemtl BW/666
f  1/1/1  2/2/1  3/3/1  4/4/1
usemtl BW/666
f  5/5/2  3/6/2  2/7/2  6/8/2
usemtl BW/666
f  6/9/3  2/10/3  1/11/3  7/12/3
usemtl BW/666
f  8/12/4  4/11/4  3/10/4  5/9/4
usemtl BW/666
f  7/8/5  1/7/5  4/6/5  8/5/5
usemtl BW/666
f  8/4/6  5/3/6  6/2/6  7/1/6

o entity0_brush1
usemtl BW/black
f  9/13/1  10/14/1  11/15/1  12/16/1
usemtl BW/black
f  13/17/2  11/18/2  10/19/2  14/20/2
usemtl BW/black
f  14/21/3  10/22/3  9/23/3  15/24/3
usemtl BW/black
f  16/24/4  12/23/4  11/22/4  13/21/4
usemtl BW/black
f  15/20/5  9/19/5  12/18/5  16/17/5
usemtl BW/black
f  16/16/6  13/15/6  14/14/6  15/13/6

o entity0_brush2
usemtl BW/666
f  17/25/1  18/26/1  19/27/1  20/28/1
usemtl BW/666
f  21/29/7  18/26/7  17/25/7  22/30/7
usemtl BW/666
f  23/31/2  20/32/2  19/33/2  24/34/2
usemtl BW/666
f  24/9/3  19/35/3  18/36/3  21/37/3  25/38/3
usemtl BW/666
f  26/38/4  22/37/4  17/36/4  20/35/4  23/9/4
usemtl BW/666
f  25/34/5  21/39/5  22/40/5  26/31/5
usemtl BW/666
f  25/29/6  26/30/6  23/28/6  24/27/6

o entity0_brush3
usemtl BW/666
f  27/41/1  28/42/1  29/43/1  30/44/1
usemtl BW/666
f  29/43/8  28/42/8  31/45/8  32/46/8
usemtl BW/666
f  33/31/2  32/40/2  31/39/2  34/34/2
usemtl BW/666
f  34/47/3  31/48/3  28/49/3  27/50/3  35/51/3
usemtl BW/666
f  36/51/4  30/50/4  29/49/4  32/48/4  33/47/4
usemtl BW/666
f  35/34/5  27/33/5  30/32/5  36/31/5
usemtl BW/666
f  36/44/6  33/46/6  34/45/6  35/41/6

o entity1_brush0
usemtl BW/888
f  37/52/1  38/53/1  39/54/1  40/55/1
usemtl BW/888
f  41/56/2  39/57/2  38/58/2  42/59/2
usemtl BW/888
f  42/60/3  38/61/3  37/62/3  43/63/3
usemtl BW/888
f  44/63/4  40/62/4  39/61/4  41/60/4
usemtl BW/888
f  43/59/5  37/58/5  40/57/5  44/56/5
usemtl BW/888
f  44/55/6  41/54/6  42/53/6  43/52/6

o entity1_brush1
usemtl BW/888
f  45/64/1  46/65/1  47/66/1  48/67/1
usemtl BW/888
f  49/68/2  47/69/2  46/70/2  50/71/2
usemtl BW/888
f  50/72/3  46/73/3  45/74/3  51/75/3
usemtl BW/888
f  52/75/4  48/74/4  47/73/4  49/72/4
usemtl BW/888
f  51/71/5  45/70/5  48/69/5  52/68/5
usemtl BW/888
f  52/67/6  49/66/6  50/65/6  51/64/6

o entity1_brush2
usemtl BW/888
f  53/76/1  54/77/1  55/78/1  56/79/1
usemtl BW/888
f  57/68/2  55/69/2  54/70/2  58/71/2
usemtl BW/888
f  58/80/3  54/81/3  53/82/3  59/83/3
usemtl BW/888
f  60/83/4  56/82/4  55/81/4  57/80/4
usemtl BW/888
f  59/71/5  53/70/5  56/69/5  60/68/5
usemtl BW/888
f  60/79/6  57/78/6  58/77/6  59/76/6

o entity1_brush3
usemtl BW/888
f  61/84/1  62/85/1  63/53/1  64/52/1
usemtl BW/888
f  65/59/2  63/58/2  62/86/2  66/87/2
usemtl BW/888
f  66/60/3  62/61/3  61/62/3  67/63/3
usemtl BW/888
f  68/63/4  64/62/4  63/61/4  65/60/4
usemtl BW/888
f  67/87/5  61/86/5  64/58/5  68/59/5
usemtl BW/888
f  68/52/6  65/53/6  66/85/6  67/84/6

o entity1_brush4
usemtl BW/888
f  69/88/1  70/89/1  71/90/1  72/91/1
usemtl BW/888
f  73/68/2  71/69/2  70/70/2  74/71/2
usemtl BW/888
f  74/92/3  70/93/3  69/94/3  75/95/3
usemtl BW/888
f  76/95/4  72/94/4  71/93/4  73/92/4
usemtl BW/888
f  75/71/5  69/70/5  72/69/5  76/68/5
usemtl BW/888
f  76/91/6  73/90/6  74/89/6  75/88/6

o entity1_brush5
usemtl BW/888
f  77/96/1  78/97/1  79/98/1  80/99/1
usemtl BW/888
f  81/68/2  79/69/2  78/70/2  82/71/2
usemtl BW/888
f  82/100/3  78/101/3  77/102/3  83/103/3
usemtl BW/888
f  84/103/4  80/102/4  79/101/4  81/100/4
usemtl BW/888
f  83/71/5  77/70/5  80/69/5  84/68/5
usemtl BW/888
f  84/99/6  81/98/6  82/97/6  83/96/6

o entity1_brush6
usemtl BW/888
f  85/104/1  86/105/1  87/106/1  88/107/1
usemtl BW/888
f  89/68/2  87/69/2  86/70/2  90/71/2
usemtl BW/888
f  90/108/3  86/109/3  85/110/3  91/111/3
usemtl BW/888
f  92/111/4  88/110/4  87/109/4  89/108/4
usemtl BW/888
f  91/71/5  85/70/5  88/69/5  92/68/5
usemtl BW/888
f  92/107/6  89/106/6  90/105/6  91/104/6

o entity1_brush7
usemtl BW/888
f  93/112/1  94/113/1  95/114/1  96/115/1
usemtl BW/888
f  97/116/2  95/117/2  94/65/2  98/64/2
usemtl BW/888
f  98/118/3  94/119/3  93/120/3  99/121/3
usemtl BW/888
f  100/121/4  96/120/4  95/119/4  97/118/4
usemtl BW/888
f  99/64/5  93/65/5  96/117/5  100/116/5
usemtl BW/888
f  100/115/6  97/114/6  98/113/6  99/112/6

o entity2_brush0
usemtl BW/888
f  101/122/1  102/123/1  103/124/1  104/125/1
usemtl BW/888
f  105/59/2  103/126/2  102/127/2  106/87/2
usemtl BW/888
f  106/128/3  102/129/3  101/130/3  107/131/3
usemtl BW/888
f  108/131/4  104/130/4  103/129/4  105/128/4
usemtl BW/888
f  107/87/5  101/127/5  104/126/5  108/59/5
usemtl BW/888
f  108/125/6  105/124/6  106/123/6  107/122/6

o entity2_brush1
usemtl BW/888
f  109/132/1  110/133/1  111/134/1  112/135/1
usemtl BW/888
f  113/136/2  111/137/2  110/138/2  114/139/2
usemtl BW/888
f  114/140/3  110/141/3  109/142/3  115/143/3
usemtl BW/888
f  116/143/4  112/142/4  111/141/4  113/140/4
usemtl BW/888
f  115/139/5  109/138/5  112/137/5  116/136/5
usemtl BW/888
f  116/135/6  113/134/6  114/133/6  115/132/6

o entity2_brush2
usemtl BW/888
f  117/144/1  118/145/1  119/146/1  120/147/1
usemtl BW/888
f  121/148/2  119/149/2  118/96/2  122/150/2
usemtl BW/888
f  122/151/3  118/152/3  117/153/3  123/154/3
usemtl BW/888
f  124/154/4  120/153/4  119/152/4  121/151/4
usemtl BW/888
f  123/150/5  117/96/5  120/149/5  124/148/5
usemtl BW/888
f  124/147/6  121/146/6  122/145/6  123/144/6

o entity2_brush3
usemtl BW/888
f  125/155/1  126/156/1  127/157/1  128/158/1
usemtl BW/888
f  129/159/2  127/160/2  126/161/2  130/162/2
usemtl BW/888
f  130/163/3  126/164/3  125/165/3  131/166/3
usemtl BW/888
f  132/166/4  128/165/4  127/164/4  129/163/4
usemtl BW/888
f  131/162/5  125/161/5  128/160/5  132/159/5
usemtl BW/888
f  132/158/6  129/157/6  130/156/6  131/155/6

o entity2_brush4
usemtl BW/888
f  133/132/1  134/133/1  135/134/1  136/135/1
usemtl BW/888
f  137/167/2  135/168/2  134/169/2  138/170/2
usemtl BW/888
f  138/171/3  134/172/3  133/173/3  139/174/3
usemtl BW/888
f  140/174/4  136/173/4  135/172/4  137/171/4
usemtl BW/888
f  139/170/5  133/169/5  136/168/5  140/167/5
usemtl BW/888
f  140/135/6  137/134/6  138/133/6  139/132/6

o entity3_brush0
usemtl BW/888
f  141/175/1  142/176/1  143/177/1  144/178/1
usemtl BW/888
f  145/59/2  143/126/2  142/127/2  146/87/2
usemtl BW/888
f  146/179/3  142/180/3  141/181/3  147/182/3
usemtl BW/888
f  148/182/4  144/181/4  143/180/4  145/179/4
usemtl BW/888
f  147/87/5  141/127/5  144/126/5  148/59/5
usemtl BW/888
f  148/178/6  145/177/6  146/176/6  147/175/6

o entity3_brush1
usemtl BW/888
f  149/183/1  150/184/1  151/185/1  152/186/1
usemtl BW/888
f  153/136/2  151/137/2  150/138/2  154/139/2
usemtl BW/888
f  154/187/3  150/188/3  149/189/3  155/190/3
usemtl BW/888
f  156/190/4  152/189/4  151/188/4  153/187/4
usemtl BW/888
f  155/139/5  149/138/5  152/137/5  156/136/5
usemtl BW/888
f  156/186/6  153/185/6  154/184/6  155/183/6

o entity3_brush2
usemtl BW/888
f  157/191/1  158/192/1  159/193/1  160/194/1
usemtl BW/888
f  161/148/2  159/149/2  158/96/2  162/150/2
usemtl BW/888
f  162/195/3  158/196/3  157/197/3  163/198/3
usemtl BW/888
f  164/198/4  160/197/4  159/196/4  161/195/4
usemtl BW/888
f  163/150/5  157/96/5  160/149/5  164/148/5
usemtl BW/888
f  164/194/6  161/193/6  162/192/6  163/191/6

o entity3_brush3
usemtl BW/888
f  165/199/1  166/200/1  167/201/1  168/202/1
usemtl BW/888
f  169/159/2  167/160/2  166/161/2  170/162/2
usemtl BW/888
f  170/203/3  166/204/3  165/205/3  171/206/3
usemtl BW/888
f  172/206/4  168/205/4  167/204/4  169/203/4
usemtl BW/888
f  171/162/5  165/161/5  168/160/5  172/159/5
usemtl BW/888
f  172/202/6  169/201/6  170/200/6  171/199/6

o entity3_brush4
usemtl BW/888
f  173/183/1  174/184/1  175/185/1  176/186/1
usemtl BW/888
f  177/167/2  175/168/2  174/169/2  178/170/2
usemtl BW/888
f  178/207/3  174/208/3  173/209/3  179/210/3
usemtl BW/888
f  180/210/4  176/209/4  175/208/4  177/207/4
usemtl BW/888
f  179/170/5  173/169/5  176/168/5  180/167/5
usemtl BW/888
f  180/186/6  177/185/6  178/184/6  179/183/6

